<?xml version="1.0" encoding="UTF-8"?>
<svg xmlns="http://www.w3.org/2000/svg" width="1800" height="1160" viewBox="0 0 1800 1160" role="img" aria-label="Demo Figma Academy Edition">
  <defs>
    <filter id="shadow" x="-20%" y="-20%" width="140%" height="150%">
      <feDropShadow dx="0" dy="12" stdDeviation="16" flood-color="#0D0D0D" flood-opacity="0.14"/>
    </filter>
    <filter id="softShadow" x="-20%" y="-20%" width="140%" height="150%">
      <feDropShadow dx="0" dy="8" stdDeviation="10" flood-color="#0D0D0D" flood-opacity="0.10"/>
    </filter>
    <marker id="arrow" markerWidth="12" markerHeight="12" refX="10" refY="6" orient="auto">
      <path d="M2,2 L10,6 L2,10 Z" fill="#343943"/>
    </marker>
    <linearGradient id="hero" x1="0" y1="0" x2="1" y2="1">
      <stop offset="0%" stop-color="#FF3045"/>
      <stop offset="58%" stop-color="#B01626"/>
      <stop offset="100%" stop-color="#7B1D18"/>
    </linearGradient>
    <linearGradient id="brandRed" x1="0" y1="0" x2="1" y2="1">
      <stop offset="0%" stop-color="#FF3045"/>
      <stop offset="100%" stop-color="#B01626"/>
    </linearGradient>
    <linearGradient id="inkGrad" x1="0" y1="0" x2="1" y2="1">
      <stop offset="0%" stop-color="#0D0D0D"/>
      <stop offset="100%" stop-color="#1F232B"/>
    </linearGradient>
  </defs>
  <rect width="1800" height="1160" fill="#F5F6F8"/>
  <rect x="70" y="50" width="76" height="76" rx="14" fill="url(#brandRed)" stroke="none" stroke-width="1" />
<rect x="87.03" y="80.14" width="41.93" height="28.83" rx="3.93" fill="none" stroke="#ffffff" stroke-width="3.93" />
<path d="M87.03 73.59 L126.34 64.41 L127.66 72.28 L89.66 81.45 Z" fill="#ffffff"/>
<path d="M96.21000000000001 73.59 L102.75999999999999 78.83 M110.62 69.66 L117.17 74.9" stroke="#FF3045" stroke-width="3.93"/>
<rect x="98.83" y="95.86" width="6.55" height="10.48" rx="1" fill="#ffffff" stroke="none" stroke-width="1" />
<rect x="110.62" y="89.31" width="6.55" height="17.03" rx="1" fill="#ffffff" stroke="none" stroke-width="1" />
<rect x="122.41" y="82.75999999999999" width="6.55" height="23.59" rx="1" fill="#ffffff" stroke="none" stroke-width="1" />
<text x="170" y="76" font-family="Montserrat, Inter, Arial, sans-serif" font-size="18" font-weight="900" fill="#FF3045" text-anchor="start" >GUIA DE BRANDING</text>
<text x="170" y="112" font-family="Montserrat, Inter, Arial, sans-serif" font-size="42" font-weight="900" fill="#1F232B" text-anchor="start" >ACADEMY</text>
<text x="170" y="156" font-family="Montserrat, Inter, Arial, sans-serif" font-size="42" font-weight="900" fill="#FF3045" text-anchor="start" >EDITION</text>
<text x="560" y="94" font-family="Montserrat, Inter, Arial, sans-serif" font-size="38" font-weight="900" fill="#1F232B" text-anchor="start" >Aprende. Explora. Analiza. Inspira.</text>
<text x="560" y="132" font-family="Montserrat, Inter, Arial, sans-serif" font-size="18" font-weight="500" fill="#0D0D0D" text-anchor="start" >Demo Figma completa con la identidad Academy Edition</text>
<rect x="70" y="190" width="1660" height="900" rx="8" fill="#ffffff" stroke="#D3D6DC" stroke-width="1" filter="url(#shadow)"/>
<rect x="110" y="228" width="1530" height="82" rx="8" fill="#F5F6F8" stroke="#D3D6DC" stroke-width="1" />
<text x="135" y="258" font-family="Montserrat, Inter, Arial, sans-serif" font-size="18" font-weight="900" fill="#1F232B" text-anchor="start" >Lectura del flujo</text>
<rect x="135" y="272" width="76" height="30" rx="7" fill="#FFE5E8" stroke="none" stroke-width="1" />
<text x="173" y="292" font-family="Montserrat, Inter, Arial, sans-serif" font-size="13" font-weight="800" fill="#FF3045" text-anchor="middle" >Must</text>
<rect x="230" y="272" width="78" height="30" rx="7" fill="#FFE9EC" stroke="none" stroke-width="1" />
<text x="269" y="292" font-family="Montserrat, Inter, Arial, sans-serif" font-size="13" font-weight="800" fill="#a66b00" text-anchor="middle" >Should</text>
<rect x="345" y="272" width="76" height="30" rx="7" fill="#F4E4E2" stroke="none" stroke-width="1" />
<text x="383" y="292" font-family="Montserrat, Inter, Arial, sans-serif" font-size="13" font-weight="800" fill="#7B1D18" text-anchor="middle" >Could</text>
<rect x="445" y="272" width="76" height="30" rx="7" fill="#FFE5E8" stroke="none" stroke-width="1" />
<text x="483" y="292" font-family="Montserrat, Inter, Arial, sans-serif" font-size="13" font-weight="800" fill="#FF3045" text-anchor="middle" >Won't</text>
<text x="575" y="274" font-family="Montserrat, Inter, Arial, sans-serif" font-size="14" font-weight="800" fill="#343943" text-anchor="start" >Flujo principal</text>
<rect x="575" y="286" width="96" height="4" rx="2" fill="#FF3045" stroke="none" stroke-width="1" />
<text x="720" y="274" font-family="Montserrat, Inter, Arial, sans-serif" font-size="14" font-weight="800" fill="#343943" text-anchor="start" >Extras opcionales</text>
<rect x="720" y="286" width="96" height="4" rx="2" fill="#7B1D18" stroke="none" stroke-width="1" stroke-dasharray="8 8"/>
<text x="870" y="292" font-family="Montserrat, Inter, Arial, sans-serif" font-size="14" font-weight="600" fill="#343943" text-anchor="start" >Los conectores entran y salen por el centro de cada tarjeta.</text>
<text x="110" y="352" font-family="Montserrat, Inter, Arial, sans-serif" font-size="21" font-weight="900" fill="#1F232B" text-anchor="start" >Publico</text>
<text x="445" y="352" font-family="Montserrat, Inter, Arial, sans-serif" font-size="21" font-weight="900" fill="#1F232B" text-anchor="start" >Autenticacion</text>
<text x="780" y="352" font-family="Montserrat, Inter, Arial, sans-serif" font-size="21" font-weight="900" fill="#1F232B" text-anchor="start" >Instructor</text>
<text x="1115" y="352" font-family="Montserrat, Inter, Arial, sans-serif" font-size="21" font-weight="900" fill="#1F232B" text-anchor="start" >Alumno</text>
<text x="1450" y="352" font-family="Montserrat, Inter, Arial, sans-serif" font-size="21" font-weight="900" fill="#1F232B" text-anchor="start" >Extras</text>
<rect x="92" y="365" width="292" height="630" rx="8" fill="#F5F6F8" stroke="#D3D6DC" stroke-width="1" />
<rect x="427" y="365" width="292" height="630" rx="8" fill="#F5F6F8" stroke="#D3D6DC" stroke-width="1" />
<rect x="762" y="365" width="292" height="630" rx="8" fill="#F5F6F8" stroke="#D3D6DC" stroke-width="1" />
<rect x="1097" y="365" width="292" height="630" rx="8" fill="#F5F6F8" stroke="#D3D6DC" stroke-width="1" />
<rect x="1432" y="365" width="262" height="630" rx="8" fill="#F5F6F8" stroke="#D3D6DC" stroke-width="1" />
<rect x="110" y="398" width="250" height="132" rx="8" fill="#ffffff" stroke="#FF3045" stroke-width="2" filter="url(#softShadow)"/>
<rect x="128" y="412" width="76" height="30" rx="7" fill="#FFE5E8" stroke="none" stroke-width="1" />
<text x="166" y="432" font-family="Montserrat, Inter, Arial, sans-serif" font-size="13" font-weight="800" fill="#1F232B" text-anchor="middle" >Must</text>
<text x="128" y="462" font-family="Montserrat, Inter, Arial, sans-serif" font-size="20" font-weight="900" fill="#1F232B" text-anchor="start" >Home</text>
<text x="128" y="492" font-family="Montserrat, Inter, Arial, sans-serif" font-size="14" font-weight="600" fill="#343943" text-anchor="start" >Cursos destacados</text>
<text x="128" y="512" font-family="Montserrat, Inter, Arial, sans-serif" font-size="14" font-weight="600" fill="#343943" text-anchor="start" >Categorias y CTA</text>
<rect x="110" y="582" width="250" height="132" rx="8" fill="#ffffff" stroke="#FF3045" stroke-width="2" filter="url(#softShadow)"/>
<rect x="128" y="596" width="76" height="30" rx="7" fill="#FFE5E8" stroke="none" stroke-width="1" />
<text x="166" y="616" font-family="Montserrat, Inter, Arial, sans-serif" font-size="13" font-weight="800" fill="#1F232B" text-anchor="middle" >Must</text>
<text x="128" y="646" font-family="Montserrat, Inter, Arial, sans-serif" font-size="20" font-weight="900" fill="#1F232B" text-anchor="start" >Listado</text>
<text x="128" y="676" font-family="Montserrat, Inter, Arial, sans-serif" font-size="14" font-weight="600" fill="#343943" text-anchor="start" >Busqueda, filtros</text>
<text x="128" y="696" font-family="Montserrat, Inter, Arial, sans-serif" font-size="14" font-weight="600" fill="#343943" text-anchor="start" >paginacion</text>
<rect x="110" y="766" width="250" height="132" rx="8" fill="#ffffff" stroke="#FF3045" stroke-width="2" filter="url(#softShadow)"/>
<rect x="128" y="780" width="76" height="30" rx="7" fill="#FFE5E8" stroke="none" stroke-width="1" />
<text x="166" y="800" font-family="Montserrat, Inter, Arial, sans-serif" font-size="13" font-weight="800" fill="#1F232B" text-anchor="middle" >Must</text>
<text x="128" y="830" font-family="Montserrat, Inter, Arial, sans-serif" font-size="20" font-weight="900" fill="#1F232B" text-anchor="start" >Detalle curso</text>
<text x="128" y="860" font-family="Montserrat, Inter, Arial, sans-serif" font-size="14" font-weight="600" fill="#343943" text-anchor="start" >Temario, reviews</text>
<text x="128" y="880" font-family="Montserrat, Inter, Arial, sans-serif" font-size="14" font-weight="600" fill="#343943" text-anchor="start" >sin alta directa</text>
<rect x="445" y="492" width="250" height="132" rx="8" fill="#ffffff" stroke="#FF3045" stroke-width="2" filter="url(#softShadow)"/>
<rect x="463" y="506" width="76" height="30" rx="7" fill="#FFE5E8" stroke="none" stroke-width="1" />
<text x="501" y="526" font-family="Montserrat, Inter, Arial, sans-serif" font-size="13" font-weight="800" fill="#1F232B" text-anchor="middle" >Must</text>
<text x="463" y="556" font-family="Montserrat, Inter, Arial, sans-serif" font-size="20" font-weight="900" fill="#1F232B" text-anchor="start" >Login</text>
<text x="463" y="586" font-family="Montserrat, Inter, Arial, sans-serif" font-size="14" font-weight="600" fill="#343943" text-anchor="start" >JWT y sesion</text>
<text x="463" y="606" font-family="Montserrat, Inter, Arial, sans-serif" font-size="14" font-weight="600" fill="#343943" text-anchor="start" >redirige por rol</text>
<rect x="445" y="736" width="250" height="132" rx="8" fill="#ffffff" stroke="#FF3045" stroke-width="2" filter="url(#softShadow)"/>
<rect x="463" y="750" width="76" height="30" rx="7" fill="#FFE5E8" stroke="none" stroke-width="1" />
<text x="501" y="770" font-family="Montserrat, Inter, Arial, sans-serif" font-size="13" font-weight="800" fill="#1F232B" text-anchor="middle" >Must</text>
<text x="463" y="800" font-family="Montserrat, Inter, Arial, sans-serif" font-size="20" font-weight="900" fill="#1F232B" text-anchor="start" >Registro</text>
<text x="463" y="830" font-family="Montserrat, Inter, Arial, sans-serif" font-size="14" font-weight="600" fill="#343943" text-anchor="start" >Alumno o instructor</text>
<text x="463" y="850" font-family="Montserrat, Inter, Arial, sans-serif" font-size="14" font-weight="600" fill="#343943" text-anchor="start" >validacion Zod</text>
<rect x="780" y="398" width="250" height="132" rx="8" fill="#ffffff" stroke="#d89116" stroke-width="2" filter="url(#softShadow)"/>
<rect x="798" y="412" width="78" height="30" rx="7" fill="#FFE9EC" stroke="none" stroke-width="1" />
<text x="837" y="432" font-family="Montserrat, Inter, Arial, sans-serif" font-size="13" font-weight="800" fill="#1F232B" text-anchor="middle" >Should</text>
<text x="798" y="462" font-family="Montserrat, Inter, Arial, sans-serif" font-size="20" font-weight="900" fill="#1F232B" text-anchor="start" >Dashboard</text>
<text x="798" y="492" font-family="Montserrat, Inter, Arial, sans-serif" font-size="14" font-weight="600" fill="#343943" text-anchor="start" >Cursos creados</text>
<text x="798" y="512" font-family="Montserrat, Inter, Arial, sans-serif" font-size="14" font-weight="600" fill="#343943" text-anchor="start" >metricas base</text>
<rect x="780" y="582" width="250" height="132" rx="8" fill="#ffffff" stroke="#FF3045" stroke-width="2" filter="url(#softShadow)"/>
<rect x="798" y="596" width="76" height="30" rx="7" fill="#FFE5E8" stroke="none" stroke-width="1" />
<text x="836" y="616" font-family="Montserrat, Inter, Arial, sans-serif" font-size="13" font-weight="800" fill="#1F232B" text-anchor="middle" >Must</text>
<text x="798" y="646" font-family="Montserrat, Inter, Arial, sans-serif" font-size="20" font-weight="900" fill="#1F232B" text-anchor="start" >Wizard curso</text>
<text x="798" y="676" font-family="Montserrat, Inter, Arial, sans-serif" font-size="14" font-weight="600" fill="#343943" text-anchor="start" >Datos basicos</text>
<text x="798" y="696" font-family="Montserrat, Inter, Arial, sans-serif" font-size="14" font-weight="600" fill="#343943" text-anchor="start" >modulos, lecciones</text>
<rect x="780" y="766" width="250" height="132" rx="8" fill="#ffffff" stroke="#FF3045" stroke-width="2" filter="url(#softShadow)"/>
<rect x="798" y="780" width="76" height="30" rx="7" fill="#FFE5E8" stroke="none" stroke-width="1" />
<text x="836" y="800" font-family="Montserrat, Inter, Arial, sans-serif" font-size="13" font-weight="800" fill="#1F232B" text-anchor="middle" >Must</text>
<text x="798" y="830" font-family="Montserrat, Inter, Arial, sans-serif" font-size="20" font-weight="900" fill="#1F232B" text-anchor="start" >Gestion curso</text>
<text x="798" y="860" font-family="Montserrat, Inter, Arial, sans-serif" font-size="14" font-weight="600" fill="#343943" text-anchor="start" >Editar, publicar</text>
<text x="798" y="880" font-family="Montserrat, Inter, Arial, sans-serif" font-size="14" font-weight="600" fill="#343943" text-anchor="start" >inscribir alumnos</text>
<rect x="1115" y="398" width="250" height="132" rx="8" fill="#ffffff" stroke="#FF3045" stroke-width="2" filter="url(#softShadow)"/>
<rect x="1133" y="412" width="76" height="30" rx="7" fill="#FFE5E8" stroke="none" stroke-width="1" />
<text x="1171" y="432" font-family="Montserrat, Inter, Arial, sans-serif" font-size="13" font-weight="800" fill="#1F232B" text-anchor="middle" >Must</text>
<text x="1133" y="462" font-family="Montserrat, Inter, Arial, sans-serif" font-size="20" font-weight="900" fill="#1F232B" text-anchor="start" >Mis cursos</text>
<text x="1133" y="492" font-family="Montserrat, Inter, Arial, sans-serif" font-size="14" font-weight="600" fill="#343943" text-anchor="start" >Progreso por curso</text>
<text x="1133" y="512" font-family="Montserrat, Inter, Arial, sans-serif" font-size="14" font-weight="600" fill="#343943" text-anchor="start" >continuar leccion</text>
<rect x="1115" y="582" width="250" height="132" rx="8" fill="#ffffff" stroke="#FF3045" stroke-width="2" filter="url(#softShadow)"/>
<rect x="1133" y="596" width="76" height="30" rx="7" fill="#FFE5E8" stroke="none" stroke-width="1" />
<text x="1171" y="616" font-family="Montserrat, Inter, Arial, sans-serif" font-size="13" font-weight="800" fill="#1F232B" text-anchor="middle" >Must</text>
<text x="1133" y="646" font-family="Montserrat, Inter, Arial, sans-serif" font-size="20" font-weight="900" fill="#1F232B" text-anchor="start" >Visor leccion</text>
<text x="1133" y="676" font-family="Montserrat, Inter, Arial, sans-serif" font-size="14" font-weight="600" fill="#343943" text-anchor="start" >PDF/video</text>
<text x="1133" y="696" font-family="Montserrat, Inter, Arial, sans-serif" font-size="14" font-weight="600" fill="#343943" text-anchor="start" >completar leccion</text>
<rect x="1115" y="766" width="250" height="132" rx="8" fill="#ffffff" stroke="#d89116" stroke-width="2" filter="url(#softShadow)"/>
<rect x="1133" y="780" width="78" height="30" rx="7" fill="#FFE9EC" stroke="none" stroke-width="1" />
<text x="1172" y="800" font-family="Montserrat, Inter, Arial, sans-serif" font-size="13" font-weight="800" fill="#1F232B" text-anchor="middle" >Should</text>
<text x="1133" y="830" font-family="Montserrat, Inter, Arial, sans-serif" font-size="20" font-weight="900" fill="#1F232B" text-anchor="start" >Reviews</text>
<text x="1133" y="860" font-family="Montserrat, Inter, Arial, sans-serif" font-size="14" font-weight="600" fill="#343943" text-anchor="start" >Puntuacion y comentario</text>
<text x="1133" y="880" font-family="Montserrat, Inter, Arial, sans-serif" font-size="14" font-weight="600" fill="#343943" text-anchor="start" >solo inscritos</text>
<rect x="1450" y="406" width="220" height="124" rx="8" fill="#ffffff" stroke="#7B1D18" stroke-width="2" filter="url(#softShadow)"/>
<rect x="1468" y="420" width="76" height="30" rx="7" fill="#F4E4E2" stroke="none" stroke-width="1" />
<text x="1506" y="440" font-family="Montserrat, Inter, Arial, sans-serif" font-size="13" font-weight="800" fill="#1F232B" text-anchor="middle" >Could</text>
<text x="1468" y="470" font-family="Montserrat, Inter, Arial, sans-serif" font-size="20" font-weight="900" fill="#1F232B" text-anchor="start" >Certificado</text>
<text x="1468" y="500" font-family="Montserrat, Inter, Arial, sans-serif" font-size="14" font-weight="600" fill="#343943" text-anchor="start" >PDF al 100%</text>
<text x="1468" y="520" font-family="Montserrat, Inter, Arial, sans-serif" font-size="14" font-weight="600" fill="#343943" text-anchor="start" >descarga</text>
<rect x="1450" y="596" width="220" height="124" rx="8" fill="#ffffff" stroke="#7B1D18" stroke-width="2" filter="url(#softShadow)"/>
<rect x="1468" y="610" width="76" height="30" rx="7" fill="#F4E4E2" stroke="none" stroke-width="1" />
<text x="1506" y="630" font-family="Montserrat, Inter, Arial, sans-serif" font-size="13" font-weight="800" fill="#1F232B" text-anchor="middle" >Could</text>
<text x="1468" y="660" font-family="Montserrat, Inter, Arial, sans-serif" font-size="20" font-weight="900" fill="#1F232B" text-anchor="start" >Tema e i18n</text>
<text x="1468" y="690" font-family="Montserrat, Inter, Arial, sans-serif" font-size="14" font-weight="600" fill="#343943" text-anchor="start" >Claro/oscuro</text>
<text x="1468" y="710" font-family="Montserrat, Inter, Arial, sans-serif" font-size="14" font-weight="600" fill="#343943" text-anchor="start" >ES/EN</text>
<rect x="1450" y="786" width="220" height="124" rx="8" fill="#ffffff" stroke="#FF3045" stroke-width="2" filter="url(#softShadow)"/>
<rect x="1468" y="800" width="76" height="30" rx="7" fill="#FFE5E8" stroke="none" stroke-width="1" />
<text x="1506" y="820" font-family="Montserrat, Inter, Arial, sans-serif" font-size="13" font-weight="800" fill="#1F232B" text-anchor="middle" >Won't</text>
<text x="1468" y="850" font-family="Montserrat, Inter, Arial, sans-serif" font-size="20" font-weight="900" fill="#1F232B" text-anchor="start" >Pagos reales</text>
<text x="1468" y="880" font-family="Montserrat, Inter, Arial, sans-serif" font-size="14" font-weight="600" fill="#343943" text-anchor="start" >Fuera de alcance</text>
<text x="1468" y="900" font-family="Montserrat, Inter, Arial, sans-serif" font-size="14" font-weight="600" fill="#343943" text-anchor="start" >informativo</text>
<path d="M235 530 L235 582" fill="none" stroke="#FF3045" stroke-width="3"  marker-end="url(#arrow)"/>
<path d="M235 714 L235 766" fill="none" stroke="#FF3045" stroke-width="3"  marker-end="url(#arrow)"/>
<path d="M360 832 L402 832 L402 558 L445 558" fill="none" stroke="#FF3045" stroke-width="3"  marker-end="url(#arrow)"/>
<path d="M360 858 L410 858 L410 802 L445 802" fill="none" stroke="#FF3045" stroke-width="3"  marker-end="url(#arrow)"/>
<path d="M695 558 L740 558 L740 464 L780 464" fill="none" stroke="#FF3045" stroke-width="3"  marker-end="url(#arrow)"/>
<path d="M695 802 L740 802 L740 648 L780 648" fill="none" stroke="#FF3045" stroke-width="3"  marker-end="url(#arrow)"/>
<path d="M905 530 L905 582" fill="none" stroke="#FF3045" stroke-width="3"  marker-end="url(#arrow)"/>
<path d="M905 714 L905 766" fill="none" stroke="#FF3045" stroke-width="3"  marker-end="url(#arrow)"/>
<path d="M695 558 L735 558 L735 942 L1075 942 L1075 464 L1115 464" fill="none" stroke="#FF3045" stroke-width="3"  marker-end="url(#arrow)"/>
<path d="M1240 530 L1240 582" fill="none" stroke="#FF3045" stroke-width="3"  marker-end="url(#arrow)"/>
<path d="M1240 714 L1240 766" fill="none" stroke="#FF3045" stroke-width="3"  marker-end="url(#arrow)"/>
<path d="M1365 648 L1408 648 L1408 468 L1450 468" fill="none" stroke="#7B1D18" stroke-width="2" stroke-dasharray="8 8" marker-end="url(#arrow)"/>
<path d="M1365 832 L1416 832 L1416 658 L1450 658" fill="none" stroke="#7B1D18" stroke-width="2" stroke-dasharray="8 8" marker-end="url(#arrow)"/>
<path d="M1670 848 L1708 848 L1708 944 L1430 944 L1430 848 L1450 848" fill="none" stroke="#FF3045" stroke-width="2" stroke-dasharray="8 8" marker-end="url(#arrow)"/>
</svg>