<?xml version="1.0" encoding="UTF-8"?>
<svg xmlns="http://www.w3.org/2000/svg" width="1800" height="1120" viewBox="0 0 1800 1120" role="img" aria-label="Flujo publico Academy Edition">
  <defs>
    <filter id="shadow" x="-20%" y="-20%" width="140%" height="150%">
      <feDropShadow dx="0" dy="12" stdDeviation="16" flood-color="#0D0D0D" flood-opacity="0.14"/>
    </filter>
    <filter id="softShadow" x="-20%" y="-20%" width="140%" height="150%">
      <feDropShadow dx="0" dy="8" stdDeviation="10" flood-color="#0D0D0D" flood-opacity="0.10"/>
    </filter>
    <marker id="arrow" markerWidth="12" markerHeight="12" refX="10" refY="6" orient="auto">
      <path d="M2,2 L10,6 L2,10 Z" fill="#343943"/>
    </marker>
    <linearGradient id="hero" x1="0" y1="0" x2="1" y2="1">
      <stop offset="0%" stop-color="#FF3045"/>
      <stop offset="58%" stop-color="#B01626"/>
      <stop offset="100%" stop-color="#7B1D18"/>
    </linearGradient>
    <linearGradient id="brandRed" x1="0" y1="0" x2="1" y2="1">
      <stop offset="0%" stop-color="#FF3045"/>
      <stop offset="100%" stop-color="#B01626"/>
    </linearGradient>
    <linearGradient id="inkGrad" x1="0" y1="0" x2="1" y2="1">
      <stop offset="0%" stop-color="#0D0D0D"/>
      <stop offset="100%" stop-color="#1F232B"/>
    </linearGradient>
  </defs>
  <rect width="1800" height="1120" fill="#F5F6F8"/>
  <rect x="70" y="50" width="76" height="76" rx="14" fill="url(#brandRed)" stroke="none" stroke-width="1" />
<rect x="87.03" y="80.14" width="41.93" height="28.83" rx="3.93" fill="none" stroke="#ffffff" stroke-width="3.93" />
<path d="M87.03 73.59 L126.34 64.41 L127.66 72.28 L89.66 81.45 Z" fill="#ffffff"/>
<path d="M96.21000000000001 73.59 L102.75999999999999 78.83 M110.62 69.66 L117.17 74.9" stroke="#FF3045" stroke-width="3.93"/>
<rect x="98.83" y="95.86" width="6.55" height="10.48" rx="1" fill="#ffffff" stroke="none" stroke-width="1" />
<rect x="110.62" y="89.31" width="6.55" height="17.03" rx="1" fill="#ffffff" stroke="none" stroke-width="1" />
<rect x="122.41" y="82.75999999999999" width="6.55" height="23.59" rx="1" fill="#ffffff" stroke="none" stroke-width="1" />
<text x="170" y="76" font-family="Montserrat, Inter, Arial, sans-serif" font-size="18" font-weight="900" fill="#FF3045" text-anchor="start" >GUIA DE BRANDING</text>
<text x="170" y="112" font-family="Montserrat, Inter, Arial, sans-serif" font-size="42" font-weight="900" fill="#1F232B" text-anchor="start" >ACADEMY</text>
<text x="170" y="156" font-family="Montserrat, Inter, Arial, sans-serif" font-size="42" font-weight="900" fill="#FF3045" text-anchor="start" >EDITION</text>
<text x="560" y="94" font-family="Montserrat, Inter, Arial, sans-serif" font-size="38" font-weight="900" fill="#1F232B" text-anchor="start" >Aprende. Explora. Analiza. Inspira.</text>
<text x="560" y="132" font-family="Montserrat, Inter, Arial, sans-serif" font-size="18" font-weight="500" fill="#0D0D0D" text-anchor="start" >Flujo publico: descubrir cursos con una experiencia clara y profesional</text>
<rect x="70" y="205" width="500" height="670" rx="8" fill="#ffffff" stroke="#D3D6DC" stroke-width="1" filter="url(#shadow)"/>
<rect x="70" y="205" width="500" height="58" rx="8" fill="url(#inkGrad)" stroke="#0D0D0D" stroke-width="1" />
<circle cx="96" cy="234" r="6" fill="#FF3045" stroke="none" stroke-width="1" />
<circle cx="116" cy="234" r="6" fill="#ffffff" stroke="none" stroke-width="1" />
<circle cx="136" cy="234" r="6" fill="#1F232B" stroke="none" stroke-width="1" />
<text x="162" y="241" font-family="Montserrat, Inter, Arial, sans-serif" font-size="17" font-weight="800" fill="#ffffff" text-anchor="start" >01 Home publica</text>
<rect x="438" y="223" width="112" height="24" rx="6" fill="#ffffff" stroke="none" stroke-width="1" />
<text x="494" y="240" font-family="Montserrat, Inter, Arial, sans-serif" font-size="12" font-weight="900" fill="#FF3045" text-anchor="middle" >ACADEMY</text>
<rect x="70" y="263" width="500" height="56" rx="0" fill="#ffffff" stroke="none" stroke-width="1" />
<rect x="90" y="275" width="32" height="32" rx="14" fill="url(#brandRed)" stroke="none" stroke-width="1" />
<rect x="97.17" y="287.69" width="17.66" height="12.14" rx="1.66" fill="none" stroke="#ffffff" stroke-width="1.66" />
<path d="M97.17 284.93 L113.72 281.07 L114.28 284.38 L98.28 288.24 Z" fill="#ffffff"/>
<path d="M101.03 284.93 L103.78999999999999 287.14 M107.1 283.28 L109.86 285.48" stroke="#FF3045" stroke-width="1.66"/>
<rect x="102.14" y="294.31" width="2.76" height="4.41" rx="1" fill="#ffffff" stroke="none" stroke-width="1" />
<rect x="107.1" y="291.55" width="2.76" height="7.17" rx="1" fill="#ffffff" stroke="none" stroke-width="1" />
<rect x="112.07" y="288.79" width="2.76" height="9.93" rx="1" fill="#ffffff" stroke="none" stroke-width="1" />
<text x="132" y="292" font-family="Montserrat, Inter, Arial, sans-serif" font-size="14" font-weight="900" fill="#1F232B" text-anchor="start" >ACADEMY</text>
<text x="132" y="308" font-family="Montserrat, Inter, Arial, sans-serif" font-size="14" font-weight="900" fill="#FF3045" text-anchor="start" >EDITION</text>
<text x="238" y="298" font-family="Montserrat, Inter, Arial, sans-serif" font-size="12" font-weight="800" fill="#FF3045" text-anchor="start" >Cursos</text>
<rect x="238" y="310" width="44" height="3" rx="2" fill="#FF3045" stroke="none" stroke-width="1" />
<text x="316" y="298" font-family="Montserrat, Inter, Arial, sans-serif" font-size="12" font-weight="800" fill="#6B7280" text-anchor="start" >Panel</text>

<text x="394" y="298" font-family="Montserrat, Inter, Arial, sans-serif" font-size="12" font-weight="800" fill="#6B7280" text-anchor="start" >Perfil</text>

<rect x="516" y="278" width="30" height="28" rx="6" fill="url(#brandRed)" stroke="none" stroke-width="1" />
<text x="531" y="298" font-family="Montserrat, Inter, Arial, sans-serif" font-size="12" font-weight="900" fill="#ffffff" text-anchor="middle" >L</text>
<rect x="104" y="353" width="432" height="190" rx="8" fill="url(#hero)" stroke="none" stroke-width="1" />
<text x="140" y="405" font-family="Montserrat, Inter, Arial, sans-serif" font-size="28" font-weight="900" fill="#ffffff" text-anchor="start" >Domina la</text>
<text x="140" y="439" font-family="Montserrat, Inter, Arial, sans-serif" font-size="28" font-weight="900" fill="#ffffff" text-anchor="start" >programacion hoy</text>
<text x="140" y="475" font-family="Montserrat, Inter, Arial, sans-serif" font-size="15" font-weight="600" fill="#ffffff" text-anchor="start" >Aprende, explora y analiza</text>
<text x="140" y="497" font-family="Montserrat, Inter, Arial, sans-serif" font-size="15" font-weight="600" fill="#ffffff" text-anchor="start" >cursos profesionales paso a paso.</text>
<rect x="140" y="511" width="136" height="36" rx="8" fill="#ffffff" stroke="#D3D6DC" stroke-width="1" />
<text x="208" y="534" font-family="Montserrat, Inter, Arial, sans-serif" font-size="13" font-weight="900" fill="#1F232B" text-anchor="middle" >Explorar</text>
<rect x="400" y="381" width="104" height="104" rx="8" fill="#ffffff30" stroke="none" stroke-width="1" />
<rect x="416" y="399" width="72" height="68" rx="8" fill="#ffffff" stroke="none" stroke-width="1" />
<path d="M428.88 433 C440.44 407.16, 464.0224 407.16, 475.12 433 C463.56 458.84, 439.9776 458.84, 428.88 433 Z" fill="none" stroke="#FF3045" stroke-width="4.760000000000001"/>
<path d="M428.88 433 C440.44 458.84, 464.0224 458.84, 475.12 433 C463.56 407.16, 439.9776 407.16, 428.88 433 Z" fill="none" stroke="#FF3045" stroke-width="4.760000000000001"/>
<circle cx="452" cy="433" r="6.12" fill="#FF3045" stroke="none" stroke-width="1" />
<rect x="502" y="363" width="18" height="130" rx="8" fill="#ffffff20" stroke="none" stroke-width="1" />
<text x="104" y="593" font-family="Montserrat, Inter, Arial, sans-serif" font-size="19" font-weight="900" fill="#1F232B" text-anchor="start" >Categorias</text>
<rect x="104" y="618" width="128" height="74" rx="8" fill="#FFE5E8" stroke="none" stroke-width="1" />
<text x="168" y="663" font-family="Montserrat, Inter, Arial, sans-serif" font-size="15" font-weight="800" fill="#1F232B" text-anchor="middle" >Full Stack</text>
<rect x="258" y="618" width="128" height="74" rx="8" fill="#FFE9EC" stroke="none" stroke-width="1" />
<text x="322" y="663" font-family="Montserrat, Inter, Arial, sans-serif" font-size="15" font-weight="800" fill="#1F232B" text-anchor="middle" >UX/UI</text>
<rect x="412" y="618" width="128" height="74" rx="8" fill="#ECEFF3" stroke="none" stroke-width="1" />
<text x="476" y="663" font-family="Montserrat, Inter, Arial, sans-serif" font-size="15" font-weight="800" fill="#1F232B" text-anchor="middle" >Datos</text>
<rect x="650" y="205" width="500" height="670" rx="8" fill="#ffffff" stroke="#D3D6DC" stroke-width="1" filter="url(#shadow)"/>
<rect x="650" y="205" width="500" height="58" rx="8" fill="url(#inkGrad)" stroke="#0D0D0D" stroke-width="1" />
<circle cx="676" cy="234" r="6" fill="#FF3045" stroke="none" stroke-width="1" />
<circle cx="696" cy="234" r="6" fill="#ffffff" stroke="none" stroke-width="1" />
<circle cx="716" cy="234" r="6" fill="#1F232B" stroke="none" stroke-width="1" />
<text x="742" y="241" font-family="Montserrat, Inter, Arial, sans-serif" font-size="17" font-weight="800" fill="#ffffff" text-anchor="start" >02 Listado con filtros</text>
<rect x="1018" y="223" width="112" height="24" rx="6" fill="#ffffff" stroke="none" stroke-width="1" />
<text x="1074" y="240" font-family="Montserrat, Inter, Arial, sans-serif" font-size="12" font-weight="900" fill="#1F232B" text-anchor="middle" >ACADEMY</text>
<rect x="650" y="263" width="500" height="56" rx="0" fill="#ffffff" stroke="none" stroke-width="1" />
<rect x="670" y="275" width="32" height="32" rx="14" fill="url(#brandRed)" stroke="none" stroke-width="1" />
<rect x="677.17" y="287.69" width="17.66" height="12.14" rx="1.66" fill="none" stroke="#ffffff" stroke-width="1.66" />
<path d="M677.17 284.93 L693.72 281.07 L694.28 284.38 L678.28 288.24 Z" fill="#ffffff"/>
<path d="M681.03 284.93 L683.79 287.14 M687.1 283.28 L689.86 285.48" stroke="#FF3045" stroke-width="1.66"/>
<rect x="682.14" y="294.31" width="2.76" height="4.41" rx="1" fill="#ffffff" stroke="none" stroke-width="1" />
<rect x="687.1" y="291.55" width="2.76" height="7.17" rx="1" fill="#ffffff" stroke="none" stroke-width="1" />
<rect x="692.07" y="288.79" width="2.76" height="9.93" rx="1" fill="#ffffff" stroke="none" stroke-width="1" />
<text x="712" y="292" font-family="Montserrat, Inter, Arial, sans-serif" font-size="14" font-weight="900" fill="#1F232B" text-anchor="start" >ACADEMY</text>
<text x="712" y="308" font-family="Montserrat, Inter, Arial, sans-serif" font-size="14" font-weight="900" fill="#FF3045" text-anchor="start" >EDITION</text>
<text x="818" y="298" font-family="Montserrat, Inter, Arial, sans-serif" font-size="12" font-weight="800" fill="#FF3045" text-anchor="start" >Cursos</text>
<rect x="818" y="310" width="44" height="3" rx="2" fill="#FF3045" stroke="none" stroke-width="1" />
<text x="896" y="298" font-family="Montserrat, Inter, Arial, sans-serif" font-size="12" font-weight="800" fill="#6B7280" text-anchor="start" >Panel</text>

<text x="974" y="298" font-family="Montserrat, Inter, Arial, sans-serif" font-size="12" font-weight="800" fill="#6B7280" text-anchor="start" >Perfil</text>

<rect x="1096" y="278" width="30" height="28" rx="6" fill="url(#brandRed)" stroke="none" stroke-width="1" />
<text x="1111" y="298" font-family="Montserrat, Inter, Arial, sans-serif" font-size="12" font-weight="900" fill="#ffffff" text-anchor="middle" >L</text>
<rect x="684" y="349" width="432" height="54" rx="8" fill="#ffffff" stroke="#D3D6DC" stroke-width="1" />
<text x="708" y="383" font-family="Montserrat, Inter, Arial, sans-serif" font-size="15" font-weight="700" fill="#343943" text-anchor="start" >Buscar: React</text>
<rect x="950" y="363" width="90" height="26" rx="7" fill="#FFE5E8" stroke="none" stroke-width="1" />
<text x="995" y="381" font-family="Montserrat, Inter, Arial, sans-serif" font-size="12" font-weight="800" fill="#FF3045" text-anchor="middle" >Gratis</text>
<rect x="1050" y="363" width="92" height="26" rx="7" fill="#ECEFF3" stroke="none" stroke-width="1" />
<text x="1096" y="381" font-family="Montserrat, Inter, Arial, sans-serif" font-size="12" font-weight="800" fill="#1F232B" text-anchor="middle" >4+ stars</text>
<rect x="684" y="433" width="432" height="145" rx="8" fill="#ffffff" stroke="#D3D6DC" stroke-width="1" />
<rect x="684" y="433" width="432" height="60" rx="8" fill="url(#brandRed)" stroke="none" stroke-width="1" />
<rect x="700" y="451" width="108" height="76" rx="8" fill="#FFE5E8" stroke="none" stroke-width="1" />
<rect x="712" y="461" width="84" height="56" rx="8" fill="#ffffff" stroke="none" stroke-width="1" />
<path d="M734.96 489 C744.48 467.72, 763.9008 467.72, 773.04 489 C763.52 510.28, 744.0992 510.28, 734.96 489 Z" fill="none" stroke="#FF3045" stroke-width="3.9200000000000004"/>
<path d="M734.96 489 C744.48 510.28, 763.9008 510.28, 773.04 489 C763.52 467.72, 744.0992 467.72, 734.96 489 Z" fill="none" stroke="#FF3045" stroke-width="3.9200000000000004"/>
<circle cx="754" cy="489" r="5.04" fill="#FF3045" stroke="none" stroke-width="1" />
<text x="830" y="478" font-family="Montserrat, Inter, Arial, sans-serif" font-size="17" font-weight="900" fill="#ffffff" text-anchor="start" >Desarrollo Web con React</text>
<text x="830" y="508" font-family="Montserrat, Inter, Arial, sans-serif" font-size="12" font-weight="600" fill="#6B7280" text-anchor="start" >Instructor: Laura Ruiz</text>
<text x="830" y="536" font-family="Montserrat, Inter, Arial, sans-serif" font-size="12" font-weight="600" fill="#0D0D0D" text-anchor="start" >4.7 estrellas | 12 lecciones</text>
<rect x="830" y="552" width="92" height="24" rx="6" fill="#FFE5E8" stroke="none" stroke-width="1" />
<text x="876" y="569" font-family="Montserrat, Inter, Arial, sans-serif" font-size="11" font-weight="900" fill="#FF3045" text-anchor="middle" >Publicado</text>
<rect x="684" y="603" width="432" height="145" rx="8" fill="#ffffff" stroke="#D3D6DC" stroke-width="1" />
<rect x="684" y="603" width="432" height="60" rx="8" fill="url(#brandRed)" stroke="none" stroke-width="1" />
<rect x="700" y="621" width="108" height="76" rx="8" fill="#FFE5E8" stroke="none" stroke-width="1" />
<rect x="712" y="631" width="84" height="56" rx="8" fill="#ffffff" stroke="none" stroke-width="1" />
<circle cx="743.92" cy="659" r="15.680000000000001" fill="#FF3045" stroke="none" stroke-width="1" />
<rect x="728.24" y="645.56" width="26.88" height="20.16" rx="6" fill="#ffffff" stroke="none" stroke-width="1" />
<rect x="750.64" y="641.08" width="17.92" height="29.12" rx="6" fill="#1F232B" stroke="none" stroke-width="1" />
<text x="759.6" y="662.92" font-family="Montserrat, Inter, Arial, sans-serif" font-size="10.08" font-weight="900" fill="#ffffff" text-anchor="middle" >py</text>
<rect x="767.44" y="652.28" width="15.680000000000001" height="22.400000000000002" rx="6" fill="#FFC43D" stroke="none" stroke-width="1" />
<text x="830" y="648" font-family="Montserrat, Inter, Arial, sans-serif" font-size="17" font-weight="900" fill="#ffffff" text-anchor="start" >Diseno de APIs con Node.js</text>
<text x="830" y="678" font-family="Montserrat, Inter, Arial, sans-serif" font-size="12" font-weight="600" fill="#6B7280" text-anchor="start" >Instructor: Laura Ruiz</text>
<text x="830" y="706" font-family="Montserrat, Inter, Arial, sans-serif" font-size="12" font-weight="600" fill="#0D0D0D" text-anchor="start" >4.7 estrellas | 12 lecciones</text>
<rect x="830" y="722" width="92" height="24" rx="6" fill="#FFE5E8" stroke="none" stroke-width="1" />
<text x="876" y="739" font-family="Montserrat, Inter, Arial, sans-serif" font-size="11" font-weight="900" fill="#FF3045" text-anchor="middle" >Publicado</text>
<text x="684" y="803" font-family="Montserrat, Inter, Arial, sans-serif" font-size="13" font-weight="700" fill="#6B7280" text-anchor="start" >Pagina 1 de 4</text>
<rect x="1230" y="205" width="500" height="670" rx="8" fill="#ffffff" stroke="#D3D6DC" stroke-width="1" filter="url(#shadow)"/>
<rect x="1230" y="205" width="500" height="58" rx="8" fill="url(#inkGrad)" stroke="#0D0D0D" stroke-width="1" />
<circle cx="1256" cy="234" r="6" fill="#FF3045" stroke="none" stroke-width="1" />
<circle cx="1276" cy="234" r="6" fill="#ffffff" stroke="none" stroke-width="1" />
<circle cx="1296" cy="234" r="6" fill="#1F232B" stroke="none" stroke-width="1" />
<text x="1322" y="241" font-family="Montserrat, Inter, Arial, sans-serif" font-size="17" font-weight="800" fill="#ffffff" text-anchor="start" >03 Detalle de curso</text>
<rect x="1598" y="223" width="112" height="24" rx="6" fill="#ffffff" stroke="none" stroke-width="1" />
<text x="1654" y="240" font-family="Montserrat, Inter, Arial, sans-serif" font-size="12" font-weight="900" fill="#FF3045" text-anchor="middle" >ACADEMY</text>
<rect x="1230" y="263" width="500" height="56" rx="0" fill="#ffffff" stroke="none" stroke-width="1" />
<rect x="1250" y="275" width="32" height="32" rx="14" fill="url(#brandRed)" stroke="none" stroke-width="1" />
<rect x="1257.17" y="287.69" width="17.66" height="12.14" rx="1.66" fill="none" stroke="#ffffff" stroke-width="1.66" />
<path d="M1257.17 284.93 L1273.72 281.07 L1274.28 284.38 L1258.28 288.24 Z" fill="#ffffff"/>
<path d="M1261.03 284.93 L1263.79 287.14 M1267.1 283.28 L1269.86 285.48" stroke="#FF3045" stroke-width="1.66"/>
<rect x="1262.14" y="294.31" width="2.76" height="4.41" rx="1" fill="#ffffff" stroke="none" stroke-width="1" />
<rect x="1267.1" y="291.55" width="2.76" height="7.17" rx="1" fill="#ffffff" stroke="none" stroke-width="1" />
<rect x="1272.07" y="288.79" width="2.76" height="9.93" rx="1" fill="#ffffff" stroke="none" stroke-width="1" />
<text x="1292" y="292" font-family="Montserrat, Inter, Arial, sans-serif" font-size="14" font-weight="900" fill="#1F232B" text-anchor="start" >ACADEMY</text>
<text x="1292" y="308" font-family="Montserrat, Inter, Arial, sans-serif" font-size="14" font-weight="900" fill="#FF3045" text-anchor="start" >EDITION</text>
<text x="1398" y="298" font-family="Montserrat, Inter, Arial, sans-serif" font-size="12" font-weight="800" fill="#FF3045" text-anchor="start" >Cursos</text>
<rect x="1398" y="310" width="44" height="3" rx="2" fill="#FF3045" stroke="none" stroke-width="1" />
<text x="1476" y="298" font-family="Montserrat, Inter, Arial, sans-serif" font-size="12" font-weight="800" fill="#6B7280" text-anchor="start" >Panel</text>

<text x="1554" y="298" font-family="Montserrat, Inter, Arial, sans-serif" font-size="12" font-weight="800" fill="#6B7280" text-anchor="start" >Perfil</text>

<rect x="1676" y="278" width="30" height="28" rx="6" fill="url(#brandRed)" stroke="none" stroke-width="1" />
<text x="1691" y="298" font-family="Montserrat, Inter, Arial, sans-serif" font-size="12" font-weight="900" fill="#ffffff" text-anchor="middle" >L</text>
<rect x="1264" y="351" width="190" height="154" rx="8" fill="#FFE5E8" stroke="none" stroke-width="1" />
<rect x="1284" y="375" width="150" height="88" rx="8" fill="url(#brandRed)" stroke="none" stroke-width="1" />
<rect x="1307" y="385" width="104" height="68" rx="8" fill="#ffffff" stroke="none" stroke-width="1" />
<path d="M1335.88 419 C1347.44 393.16, 1371.0224 393.16, 1382.12 419 C1370.56 444.84, 1346.9776 444.84, 1335.88 419 Z" fill="none" stroke="#FF3045" stroke-width="4.760000000000001"/>
<path d="M1335.88 419 C1347.44 444.84, 1371.0224 444.84, 1382.12 419 C1370.56 393.16, 1346.9776 393.16, 1335.88 419 Z" fill="none" stroke="#FF3045" stroke-width="4.760000000000001"/>
<circle cx="1359" cy="419" r="6.12" fill="#FF3045" stroke="none" stroke-width="1" />
<text x="1482" y="375" font-family="Montserrat, Inter, Arial, sans-serif" font-size="23" font-weight="900" fill="#1F232B" text-anchor="start" >Desarrollo Web</text>
<text x="1482" y="403" font-family="Montserrat, Inter, Arial, sans-serif" font-size="23" font-weight="900" fill="#FF3045" text-anchor="start" >con React</text>
<text x="1482" y="435" font-family="Montserrat, Inter, Arial, sans-serif" font-size="13" font-weight="700" fill="#343943" text-anchor="start" >12 lecciones - 4.8 estrellas</text>
<text x="1482" y="468" font-family="Montserrat, Inter, Arial, sans-serif" font-size="13" font-weight="500" fill="#343943" text-anchor="start" >Componentes, estado, rutas</text>
<text x="1482" y="487" font-family="Montserrat, Inter, Arial, sans-serif" font-size="13" font-weight="500" fill="#343943" text-anchor="start" >y consumo de API.</text>
<rect x="1482" y="499" width="126" height="36" rx="8" fill="url(#brandRed)" stroke="none" stroke-width="1" />
<text x="1545" y="522" font-family="Montserrat, Inter, Arial, sans-serif" font-size="13" font-weight="900" fill="#ffffff" text-anchor="middle" >Ver temario</text>
<text x="1264" y="571" font-family="Montserrat, Inter, Arial, sans-serif" font-size="18" font-weight="900" fill="#1F232B" text-anchor="start" >Plan de estudios</text>
<rect x="1264" y="597" width="432" height="44" rx="12" fill="#ffffff" stroke="#D3D6DC" stroke-width="1" />
<text x="1288" y="625" font-family="Montserrat, Inter, Arial, sans-serif" font-size="14" font-weight="700" fill="#1F232B" text-anchor="start" >Modulo 1 - Fundamentos</text>
<text x="1638" y="625" font-family="Montserrat, Inter, Arial, sans-serif" font-size="12" font-weight="700" fill="#6B7280" text-anchor="start" >3 clases</text>
<rect x="1264" y="655" width="432" height="44" rx="12" fill="#ffffff" stroke="#D3D6DC" stroke-width="1" />
<text x="1288" y="683" font-family="Montserrat, Inter, Arial, sans-serif" font-size="14" font-weight="700" fill="#1F232B" text-anchor="start" >Modulo 2 - Router y estado</text>
<text x="1638" y="683" font-family="Montserrat, Inter, Arial, sans-serif" font-size="12" font-weight="700" fill="#6B7280" text-anchor="start" >4 clases</text>
<rect x="1264" y="713" width="432" height="44" rx="12" fill="#ffffff" stroke="#D3D6DC" stroke-width="1" />
<text x="1288" y="741" font-family="Montserrat, Inter, Arial, sans-serif" font-size="14" font-weight="700" fill="#1F232B" text-anchor="start" >Modulo 3 - Proyecto final</text>
<text x="1638" y="741" font-family="Montserrat, Inter, Arial, sans-serif" font-size="12" font-weight="700" fill="#6B7280" text-anchor="start" >5 clases</text>
<line x1="570" y1="540" x2="650" y2="540" stroke="#343943" stroke-width="2"  marker-end="url(#arrow)"/>
<line x1="1150" y1="540" x2="1230" y2="540" stroke="#343943" stroke-width="2"  marker-end="url(#arrow)"/>
<rect x="70" y="930" width="1660" height="120" rx="24" fill="#ffffff" stroke="#D3D6DC" stroke-width="1" />
<text x="110" y="975" font-family="Montserrat, Inter, Arial, sans-serif" font-size="20" font-weight="900" fill="#1F232B" text-anchor="start" >Interacciones clave</text>
<text x="110" y="1010" font-family="Montserrat, Inter, Arial, sans-serif" font-size="16" font-weight="500" fill="#343943" text-anchor="start" >Explorar cursos -&gt; aplica filtros sin login -&gt; entra al detalle informativo del curso.</text>
<text x="110" y="1034" font-family="Montserrat, Inter, Arial, sans-serif" font-size="16" font-weight="500" fill="#343943" text-anchor="start" >El alumno no se inscribe desde aqui: el instructor crea el Enrollment desde su panel de alumnos.</text>
</svg>