<?xml version="1.0" encoding="UTF-8"?>
<svg xmlns="http://www.w3.org/2000/svg" width="1800" height="1100" viewBox="0 0 1800 1100" role="img" aria-label="Flujo instructor Academy Edition">
  <defs>
    <filter id="shadow" x="-20%" y="-20%" width="140%" height="150%">
      <feDropShadow dx="0" dy="12" stdDeviation="16" flood-color="#0D0D0D" flood-opacity="0.14"/>
    </filter>
    <filter id="softShadow" x="-20%" y="-20%" width="140%" height="150%">
      <feDropShadow dx="0" dy="8" stdDeviation="10" flood-color="#0D0D0D" flood-opacity="0.10"/>
    </filter>
    <marker id="arrow" markerWidth="12" markerHeight="12" refX="10" refY="6" orient="auto">
      <path d="M2,2 L10,6 L2,10 Z" fill="#343943"/>
    </marker>
    <linearGradient id="hero" x1="0" y1="0" x2="1" y2="1">
      <stop offset="0%" stop-color="#FF3045"/>
      <stop offset="58%" stop-color="#B01626"/>
      <stop offset="100%" stop-color="#7B1D18"/>
    </linearGradient>
    <linearGradient id="brandRed" x1="0" y1="0" x2="1" y2="1">
      <stop offset="0%" stop-color="#FF3045"/>
      <stop offset="100%" stop-color="#B01626"/>
    </linearGradient>
    <linearGradient id="inkGrad" x1="0" y1="0" x2="1" y2="1">
      <stop offset="0%" stop-color="#0D0D0D"/>
      <stop offset="100%" stop-color="#1F232B"/>
    </linearGradient>
  </defs>
  <rect width="1800" height="1100" fill="#F5F6F8"/>
  <rect x="70" y="50" width="76" height="76" rx="14" fill="url(#brandRed)" stroke="none" stroke-width="1" />
<rect x="87.03" y="80.14" width="41.93" height="28.83" rx="3.93" fill="none" stroke="#ffffff" stroke-width="3.93" />
<path d="M87.03 73.59 L126.34 64.41 L127.66 72.28 L89.66 81.45 Z" fill="#ffffff"/>
<path d="M96.21000000000001 73.59 L102.75999999999999 78.83 M110.62 69.66 L117.17 74.9" stroke="#FF3045" stroke-width="3.93"/>
<rect x="98.83" y="95.86" width="6.55" height="10.48" rx="1" fill="#ffffff" stroke="none" stroke-width="1" />
<rect x="110.62" y="89.31" width="6.55" height="17.03" rx="1" fill="#ffffff" stroke="none" stroke-width="1" />
<rect x="122.41" y="82.75999999999999" width="6.55" height="23.59" rx="1" fill="#ffffff" stroke="none" stroke-width="1" />
<text x="170" y="76" font-family="Montserrat, Inter, Arial, sans-serif" font-size="18" font-weight="900" fill="#FF3045" text-anchor="start" >GUIA DE BRANDING</text>
<text x="170" y="112" font-family="Montserrat, Inter, Arial, sans-serif" font-size="42" font-weight="900" fill="#1F232B" text-anchor="start" >ACADEMY</text>
<text x="170" y="156" font-family="Montserrat, Inter, Arial, sans-serif" font-size="42" font-weight="900" fill="#FF3045" text-anchor="start" >EDITION</text>
<text x="560" y="94" font-family="Montserrat, Inter, Arial, sans-serif" font-size="38" font-weight="900" fill="#1F232B" text-anchor="start" >Aprende. Explora. Analiza. Inspira.</text>
<text x="560" y="132" font-family="Montserrat, Inter, Arial, sans-serif" font-size="18" font-weight="500" fill="#0D0D0D" text-anchor="start" >Flujo instructor: crear cursos, analizar progreso e inspirar alumnos</text>
<rect x="70" y="205" width="500" height="650" rx="8" fill="#ffffff" stroke="#D3D6DC" stroke-width="1" filter="url(#shadow)"/>
<rect x="70" y="205" width="500" height="58" rx="8" fill="url(#inkGrad)" stroke="#0D0D0D" stroke-width="1" />
<circle cx="96" cy="234" r="6" fill="#FF3045" stroke="none" stroke-width="1" />
<circle cx="116" cy="234" r="6" fill="#ffffff" stroke="none" stroke-width="1" />
<circle cx="136" cy="234" r="6" fill="#1F232B" stroke="none" stroke-width="1" />
<text x="162" y="241" font-family="Montserrat, Inter, Arial, sans-serif" font-size="17" font-weight="800" fill="#ffffff" text-anchor="start" >01 Dashboard instructor</text>
<rect x="438" y="223" width="112" height="24" rx="6" fill="#ffffff" stroke="none" stroke-width="1" />
<text x="494" y="240" font-family="Montserrat, Inter, Arial, sans-serif" font-size="12" font-weight="900" fill="#FF3045" text-anchor="middle" >ACADEMY</text>
<rect x="70" y="263" width="500" height="56" rx="0" fill="#ffffff" stroke="none" stroke-width="1" />
<rect x="90" y="275" width="32" height="32" rx="14" fill="url(#brandRed)" stroke="none" stroke-width="1" />
<rect x="97.17" y="287.69" width="17.66" height="12.14" rx="1.66" fill="none" stroke="#ffffff" stroke-width="1.66" />
<path d="M97.17 284.93 L113.72 281.07 L114.28 284.38 L98.28 288.24 Z" fill="#ffffff"/>
<path d="M101.03 284.93 L103.78999999999999 287.14 M107.1 283.28 L109.86 285.48" stroke="#FF3045" stroke-width="1.66"/>
<rect x="102.14" y="294.31" width="2.76" height="4.41" rx="1" fill="#ffffff" stroke="none" stroke-width="1" />
<rect x="107.1" y="291.55" width="2.76" height="7.17" rx="1" fill="#ffffff" stroke="none" stroke-width="1" />
<rect x="112.07" y="288.79" width="2.76" height="9.93" rx="1" fill="#ffffff" stroke="none" stroke-width="1" />
<text x="132" y="292" font-family="Montserrat, Inter, Arial, sans-serif" font-size="14" font-weight="900" fill="#1F232B" text-anchor="start" >ACADEMY</text>
<text x="132" y="308" font-family="Montserrat, Inter, Arial, sans-serif" font-size="14" font-weight="900" fill="#FF3045" text-anchor="start" >EDITION</text>
<text x="238" y="298" font-family="Montserrat, Inter, Arial, sans-serif" font-size="12" font-weight="800" fill="#6B7280" text-anchor="start" >Cursos</text>

<text x="316" y="298" font-family="Montserrat, Inter, Arial, sans-serif" font-size="12" font-weight="800" fill="#FF3045" text-anchor="start" >Panel</text>
<rect x="316" y="310" width="44" height="3" rx="2" fill="#FF3045" stroke="none" stroke-width="1" />
<text x="394" y="298" font-family="Montserrat, Inter, Arial, sans-serif" font-size="12" font-weight="800" fill="#6B7280" text-anchor="start" >Perfil</text>

<rect x="516" y="278" width="30" height="28" rx="6" fill="url(#brandRed)" stroke="none" stroke-width="1" />
<text x="531" y="298" font-family="Montserrat, Inter, Arial, sans-serif" font-size="12" font-weight="900" fill="#ffffff" text-anchor="middle" >L</text>
<text x="104" y="368" font-family="Montserrat, Inter, Arial, sans-serif" font-size="28" font-weight="900" fill="#1F232B" text-anchor="start" >Hola, Ana</text>
<rect x="104" y="395" width="140" height="78" rx="8" fill="#FFE5E8" stroke="none" stroke-width="1" />
<text x="128" y="429" font-family="Montserrat, Inter, Arial, sans-serif" font-size="26" font-weight="900" fill="#FF3045" text-anchor="start" >6</text>
<text x="128" y="455" font-family="Montserrat, Inter, Arial, sans-serif" font-size="13" font-weight="700" fill="#343943" text-anchor="start" >Cursos</text>
<rect x="264" y="395" width="160" height="78" rx="8" fill="#FFE9EC" stroke="none" stroke-width="1" />
<text x="288" y="429" font-family="Montserrat, Inter, Arial, sans-serif" font-size="26" font-weight="900" fill="#B01626" text-anchor="start" >124</text>
<text x="288" y="455" font-family="Montserrat, Inter, Arial, sans-serif" font-size="13" font-weight="700" fill="#343943" text-anchor="start" >Alumnos</text>
<rect x="444" y="395" width="126" height="78" rx="8" fill="#ECEFF3" stroke="none" stroke-width="1" />
<text x="468" y="429" font-family="Montserrat, Inter, Arial, sans-serif" font-size="26" font-weight="900" fill="#1F232B" text-anchor="start" >4.7</text>
<text x="468" y="455" font-family="Montserrat, Inter, Arial, sans-serif" font-size="13" font-weight="700" fill="#343943" text-anchor="start" >Rating</text>
<rect x="104" y="508" width="142" height="36" rx="8" fill="url(#brandRed)" stroke="none" stroke-width="1" />
<text x="175" y="531" font-family="Montserrat, Inter, Arial, sans-serif" font-size="13" font-weight="900" fill="#ffffff" text-anchor="middle" >Crear curso</text>
<rect x="104" y="583" width="432" height="150" rx="8" fill="#ffffff" stroke="#D3D6DC" stroke-width="1" />
<rect x="104" y="583" width="432" height="62" rx="8" fill="url(#brandRed)" stroke="none" stroke-width="1" />
<rect x="120" y="599" width="112" height="84" rx="8" fill="#FFE5E8" stroke="none" stroke-width="1" />
<rect x="128" y="607" width="96" height="68" rx="8" fill="#ffffff" stroke="none" stroke-width="1" />
<circle cx="165.12" cy="632.84" r="19.040000000000003" fill="#FF3045" stroke="none" stroke-width="1" />
<rect x="143.36" y="621.96" width="39.44" height="21.76" rx="8" fill="#ffffff" stroke="none" stroke-width="1" />
<rect x="143.36" y="635.56" width="39.44" height="21.76" rx="8" fill="#F5F6F8" stroke="none" stroke-width="1" />
<rect x="178.72" y="639.64" width="21.76" height="16.32" rx="6" fill="#ffffff" stroke="none" stroke-width="1" />
<circle cx="195.04" cy="658.68" r="10.88" fill="url(#brandRed)" stroke="none" stroke-width="1" />
<text x="195.04" y="662.76" font-family="Montserrat, Inter, Arial, sans-serif" font-size="16.32" font-weight="900" fill="#ffffff" text-anchor="middle" >↓</text>
<text x="250" y="625" font-family="Montserrat, Inter, Arial, sans-serif" font-size="18" font-weight="800" fill="#ffffff" text-anchor="start" >Desarrollo Web con React</text>
<text x="250" y="653" font-family="Montserrat, Inter, Arial, sans-serif" font-size="13" font-weight="600" fill="#6B7280" text-anchor="start" >Instructor: Laura Ruiz</text>
<text x="250" y="681" font-family="Montserrat, Inter, Arial, sans-serif" font-size="13" font-weight="600" fill="#343943" text-anchor="start" >4.7 estrellas  |  12 lecciones</text>
<rect x="250" y="699" width="210" height="10" rx="5" fill="#E5E7EB" stroke="none" stroke-width="1" />
<rect x="250" y="699" width="151.20000000000002" height="10" rx="5" fill="#FF3045" stroke="none" stroke-width="1" />
<text x="472" y="708" font-family="Montserrat, Inter, Arial, sans-serif" font-size="13" font-weight="900" fill="#1F232B" text-anchor="start" >72%</text>
<rect x="650" y="205" width="500" height="650" rx="8" fill="#ffffff" stroke="#D3D6DC" stroke-width="1" filter="url(#shadow)"/>
<rect x="650" y="205" width="500" height="58" rx="8" fill="url(#inkGrad)" stroke="#0D0D0D" stroke-width="1" />
<circle cx="676" cy="234" r="6" fill="#FF3045" stroke="none" stroke-width="1" />
<circle cx="696" cy="234" r="6" fill="#ffffff" stroke="none" stroke-width="1" />
<circle cx="716" cy="234" r="6" fill="#1F232B" stroke="none" stroke-width="1" />
<text x="742" y="241" font-family="Montserrat, Inter, Arial, sans-serif" font-size="17" font-weight="800" fill="#ffffff" text-anchor="start" >02 Wizard de curso</text>
<rect x="1018" y="223" width="112" height="24" rx="6" fill="#ffffff" stroke="none" stroke-width="1" />
<text x="1074" y="240" font-family="Montserrat, Inter, Arial, sans-serif" font-size="12" font-weight="900" fill="#1F232B" text-anchor="middle" >ACADEMY</text>
<rect x="650" y="263" width="500" height="56" rx="0" fill="#ffffff" stroke="none" stroke-width="1" />
<rect x="670" y="275" width="32" height="32" rx="14" fill="url(#brandRed)" stroke="none" stroke-width="1" />
<rect x="677.17" y="287.69" width="17.66" height="12.14" rx="1.66" fill="none" stroke="#ffffff" stroke-width="1.66" />
<path d="M677.17 284.93 L693.72 281.07 L694.28 284.38 L678.28 288.24 Z" fill="#ffffff"/>
<path d="M681.03 284.93 L683.79 287.14 M687.1 283.28 L689.86 285.48" stroke="#FF3045" stroke-width="1.66"/>
<rect x="682.14" y="294.31" width="2.76" height="4.41" rx="1" fill="#ffffff" stroke="none" stroke-width="1" />
<rect x="687.1" y="291.55" width="2.76" height="7.17" rx="1" fill="#ffffff" stroke="none" stroke-width="1" />
<rect x="692.07" y="288.79" width="2.76" height="9.93" rx="1" fill="#ffffff" stroke="none" stroke-width="1" />
<text x="712" y="292" font-family="Montserrat, Inter, Arial, sans-serif" font-size="14" font-weight="900" fill="#1F232B" text-anchor="start" >ACADEMY</text>
<text x="712" y="308" font-family="Montserrat, Inter, Arial, sans-serif" font-size="14" font-weight="900" fill="#FF3045" text-anchor="start" >EDITION</text>
<text x="818" y="298" font-family="Montserrat, Inter, Arial, sans-serif" font-size="12" font-weight="800" fill="#6B7280" text-anchor="start" >Cursos</text>

<text x="896" y="298" font-family="Montserrat, Inter, Arial, sans-serif" font-size="12" font-weight="800" fill="#FF3045" text-anchor="start" >Panel</text>
<rect x="896" y="310" width="44" height="3" rx="2" fill="#FF3045" stroke="none" stroke-width="1" />
<text x="974" y="298" font-family="Montserrat, Inter, Arial, sans-serif" font-size="12" font-weight="800" fill="#6B7280" text-anchor="start" >Perfil</text>

<rect x="1096" y="278" width="30" height="28" rx="6" fill="url(#brandRed)" stroke="none" stroke-width="1" />
<text x="1111" y="298" font-family="Montserrat, Inter, Arial, sans-serif" font-size="12" font-weight="900" fill="#ffffff" text-anchor="middle" >L</text>
<text x="684" y="367" font-family="Montserrat, Inter, Arial, sans-serif" font-size="25" font-weight="900" fill="#1F232B" text-anchor="start" >Wizard crear curso</text>
<circle cx="724" cy="413" r="18" fill="#ffffff" stroke="#D3D6DC" stroke-width="2" />
<text x="724" y="419" font-family="Montserrat, Inter, Arial, sans-serif" font-size="13" font-weight="900" fill="#343943" text-anchor="middle" >1</text>
<text x="752" y="419" font-family="Montserrat, Inter, Arial, sans-serif" font-size="13" font-weight="800" fill="#343943" text-anchor="start" >Datos</text>
<circle cx="874" cy="413" r="18" fill="#FF3045" stroke="#FF3045" stroke-width="2" />
<text x="874" y="419" font-family="Montserrat, Inter, Arial, sans-serif" font-size="13" font-weight="900" fill="#ffffff" text-anchor="middle" >2</text>
<text x="902" y="419" font-family="Montserrat, Inter, Arial, sans-serif" font-size="13" font-weight="800" fill="#343943" text-anchor="start" >Modulos</text>
<circle cx="1024" cy="413" r="18" fill="#ffffff" stroke="#D3D6DC" stroke-width="2" />
<text x="1024" y="419" font-family="Montserrat, Inter, Arial, sans-serif" font-size="13" font-weight="900" fill="#343943" text-anchor="middle" >3</text>
<text x="1052" y="419" font-family="Montserrat, Inter, Arial, sans-serif" font-size="13" font-weight="800" fill="#343943" text-anchor="start" >Lecciones</text>
<rect x="684" y="468" width="432" height="52" rx="8" fill="#ffffff" stroke="#D3D6DC" stroke-width="1" />
<text x="708" y="501" font-family="Montserrat, Inter, Arial, sans-serif" font-size="15" font-weight="700" fill="#1F232B" text-anchor="start" >Modulo: Fundamentos de React</text>
<rect x="684" y="540" width="432" height="52" rx="8" fill="#ffffff" stroke="#D3D6DC" stroke-width="1" />
<text x="708" y="573" font-family="Montserrat, Inter, Arial, sans-serif" font-size="15" font-weight="700" fill="#1F232B" text-anchor="start" >Modulo: Componentes y estado</text>
<rect x="684" y="618" width="152" height="36" rx="8" fill="#ECEFF3" stroke="none" stroke-width="1" />
<text x="760" y="642" font-family="Montserrat, Inter, Arial, sans-serif" font-size="13" font-weight="800" fill="#1F232B" text-anchor="middle" >Anadir modulo</text>
<rect x="970" y="778" width="138" height="36" rx="8" fill="url(#brandRed)" stroke="none" stroke-width="1" />
<text x="1039" y="801" font-family="Montserrat, Inter, Arial, sans-serif" font-size="13" font-weight="900" fill="#ffffff" text-anchor="middle" >Siguiente</text>
<rect x="1230" y="205" width="500" height="650" rx="8" fill="#ffffff" stroke="#D3D6DC" stroke-width="1" filter="url(#shadow)"/>
<rect x="1230" y="205" width="500" height="58" rx="8" fill="url(#inkGrad)" stroke="#0D0D0D" stroke-width="1" />
<circle cx="1256" cy="234" r="6" fill="#FF3045" stroke="none" stroke-width="1" />
<circle cx="1276" cy="234" r="6" fill="#ffffff" stroke="none" stroke-width="1" />
<circle cx="1296" cy="234" r="6" fill="#1F232B" stroke="none" stroke-width="1" />
<text x="1322" y="241" font-family="Montserrat, Inter, Arial, sans-serif" font-size="17" font-weight="800" fill="#ffffff" text-anchor="start" >03 Gestion de curso</text>
<rect x="1598" y="223" width="112" height="24" rx="6" fill="#ffffff" stroke="none" stroke-width="1" />
<text x="1654" y="240" font-family="Montserrat, Inter, Arial, sans-serif" font-size="12" font-weight="900" fill="#B01626" text-anchor="middle" >ACADEMY</text>
<rect x="1230" y="263" width="500" height="56" rx="0" fill="#ffffff" stroke="none" stroke-width="1" />
<rect x="1250" y="275" width="32" height="32" rx="14" fill="url(#brandRed)" stroke="none" stroke-width="1" />
<rect x="1257.17" y="287.69" width="17.66" height="12.14" rx="1.66" fill="none" stroke="#ffffff" stroke-width="1.66" />
<path d="M1257.17 284.93 L1273.72 281.07 L1274.28 284.38 L1258.28 288.24 Z" fill="#ffffff"/>
<path d="M1261.03 284.93 L1263.79 287.14 M1267.1 283.28 L1269.86 285.48" stroke="#FF3045" stroke-width="1.66"/>
<rect x="1262.14" y="294.31" width="2.76" height="4.41" rx="1" fill="#ffffff" stroke="none" stroke-width="1" />
<rect x="1267.1" y="291.55" width="2.76" height="7.17" rx="1" fill="#ffffff" stroke="none" stroke-width="1" />
<rect x="1272.07" y="288.79" width="2.76" height="9.93" rx="1" fill="#ffffff" stroke="none" stroke-width="1" />
<text x="1292" y="292" font-family="Montserrat, Inter, Arial, sans-serif" font-size="14" font-weight="900" fill="#1F232B" text-anchor="start" >ACADEMY</text>
<text x="1292" y="308" font-family="Montserrat, Inter, Arial, sans-serif" font-size="14" font-weight="900" fill="#FF3045" text-anchor="start" >EDITION</text>
<text x="1398" y="298" font-family="Montserrat, Inter, Arial, sans-serif" font-size="12" font-weight="800" fill="#6B7280" text-anchor="start" >Cursos</text>

<text x="1476" y="298" font-family="Montserrat, Inter, Arial, sans-serif" font-size="12" font-weight="800" fill="#FF3045" text-anchor="start" >Panel</text>
<rect x="1476" y="310" width="44" height="3" rx="2" fill="#FF3045" stroke="none" stroke-width="1" />
<text x="1554" y="298" font-family="Montserrat, Inter, Arial, sans-serif" font-size="12" font-weight="800" fill="#6B7280" text-anchor="start" >Perfil</text>

<rect x="1676" y="278" width="30" height="28" rx="6" fill="url(#brandRed)" stroke="none" stroke-width="1" />
<text x="1691" y="298" font-family="Montserrat, Inter, Arial, sans-serif" font-size="12" font-weight="900" fill="#ffffff" text-anchor="middle" >L</text>
<text x="1264" y="366" font-family="Montserrat, Inter, Arial, sans-serif" font-size="25" font-weight="900" fill="#1F232B" text-anchor="start" >Gestionar curso</text>
<rect x="1264" y="395" width="170" height="120" rx="8" fill="#FFE5E8" stroke="none" stroke-width="1" />
<rect x="1282" y="417" width="134" height="72" rx="8" fill="url(#brandRed)" stroke="none" stroke-width="1" />
<rect x="1297" y="425" width="104" height="56" rx="8" fill="#ffffff" stroke="none" stroke-width="1" />
<path d="M1329.96 453 C1339.48 431.72, 1358.9008 431.72, 1368.04 453 C1358.52 474.28, 1339.0992 474.28, 1329.96 453 Z" fill="none" stroke="#FF3045" stroke-width="3.9200000000000004"/>
<path d="M1329.96 453 C1339.48 474.28, 1358.9008 474.28, 1368.04 453 C1358.52 431.72, 1339.0992 431.72, 1329.96 453 Z" fill="none" stroke="#FF3045" stroke-width="3.9200000000000004"/>
<circle cx="1349" cy="453" r="5.04" fill="#FF3045" stroke="none" stroke-width="1" />
<text x="1458" y="417" font-family="Montserrat, Inter, Arial, sans-serif" font-size="20" font-weight="900" fill="#1F232B" text-anchor="start" >Desarrollo Web</text>
<text x="1458" y="444" font-family="Montserrat, Inter, Arial, sans-serif" font-size="20" font-weight="900" fill="#FF3045" text-anchor="start" >con React</text>
<text x="1458" y="471" font-family="Montserrat, Inter, Arial, sans-serif" font-size="12" font-weight="700" fill="#343943" text-anchor="start" >Publicado - 52 alumnos</text>
<rect x="1458" y="489" width="88" height="26" rx="7" fill="#FFE5E8" stroke="none" stroke-width="1" />
<text x="1502" y="507" font-family="Montserrat, Inter, Arial, sans-serif" font-size="11" font-weight="800" fill="#FF3045" text-anchor="middle" >Editar</text>
<rect x="1556" y="489" width="136" height="26" rx="7" fill="#FFE5E8" stroke="none" stroke-width="1" />
<text x="1624" y="507" font-family="Montserrat, Inter, Arial, sans-serif" font-size="11" font-weight="800" fill="#FF3045" text-anchor="middle" >Inscribir alumno</text>
<text x="1264" y="563" font-family="Montserrat, Inter, Arial, sans-serif" font-size="18" font-weight="900" fill="#1F232B" text-anchor="start" >Lecciones</text>
<rect x="1264" y="589" width="432" height="42" rx="12" fill="#ffffff" stroke="#D3D6DC" stroke-width="1" />
<text x="1288" y="616" font-family="Montserrat, Inter, Arial, sans-serif" font-size="14" font-weight="700" fill="#1F232B" text-anchor="start" >Intro + PDF</text>
<rect x="1598" y="598" width="76" height="24" rx="12" fill="#FFE9EC" stroke="none" stroke-width="1" />
<text x="1636" y="615" font-family="Montserrat, Inter, Arial, sans-serif" font-size="11" font-weight="800" fill="#a66b00" text-anchor="middle" >Editar</text>
<rect x="1264" y="645" width="432" height="42" rx="12" fill="#ffffff" stroke="#D3D6DC" stroke-width="1" />
<text x="1288" y="672" font-family="Montserrat, Inter, Arial, sans-serif" font-size="14" font-weight="700" fill="#1F232B" text-anchor="start" >Componentes</text>
<rect x="1598" y="654" width="76" height="24" rx="12" fill="#FFE9EC" stroke="none" stroke-width="1" />
<text x="1636" y="671" font-family="Montserrat, Inter, Arial, sans-serif" font-size="11" font-weight="800" fill="#a66b00" text-anchor="middle" >Editar</text>
<rect x="1264" y="701" width="432" height="42" rx="12" fill="#ffffff" stroke="#D3D6DC" stroke-width="1" />
<text x="1288" y="728" font-family="Montserrat, Inter, Arial, sans-serif" font-size="14" font-weight="700" fill="#1F232B" text-anchor="start" >Proyecto final</text>
<rect x="1598" y="710" width="76" height="24" rx="12" fill="#FFE9EC" stroke="none" stroke-width="1" />
<text x="1636" y="727" font-family="Montserrat, Inter, Arial, sans-serif" font-size="11" font-weight="800" fill="#a66b00" text-anchor="middle" >Editar</text>
<line x1="570" y1="530" x2="650" y2="530" stroke="#343943" stroke-width="2"  marker-end="url(#arrow)"/>
<line x1="1150" y1="530" x2="1230" y2="530" stroke="#343943" stroke-width="2"  marker-end="url(#arrow)"/>
<rect x="70" y="910" width="1660" height="130" rx="24" fill="#ffffff" stroke="#D3D6DC" stroke-width="1" />
<text x="110" y="956" font-family="Montserrat, Inter, Arial, sans-serif" font-size="20" font-weight="900" fill="#1F232B" text-anchor="start" >Prototipo sugerido</text>
<text x="110" y="992" font-family="Montserrat, Inter, Arial, sans-serif" font-size="16" font-weight="500" fill="#343943" text-anchor="start" >Click Crear curso -&gt; Paso 1 datos -&gt; Paso 2 modulos -&gt; Paso 3 lecciones y archivos -&gt; Dashboard instructor.</text>
<text x="110" y="1016" font-family="Montserrat, Inter, Arial, sans-serif" font-size="16" font-weight="500" fill="#343943" text-anchor="start" >Desde Gestionar curso se editan contenidos y se inscriben alumnos; el alumno no tiene ese boton.</text>
</svg>