<?xml version="1.0" encoding="UTF-8"?>
<svg xmlns="http://www.w3.org/2000/svg" width="1830" height="1100" viewBox="0 0 1830 1100" role="img" aria-label="Flujo alumno Academy Edition">
  <defs>
    <filter id="shadow" x="-20%" y="-20%" width="140%" height="150%">
      <feDropShadow dx="0" dy="12" stdDeviation="16" flood-color="#0D0D0D" flood-opacity="0.14"/>
    </filter>
    <filter id="softShadow" x="-20%" y="-20%" width="140%" height="150%">
      <feDropShadow dx="0" dy="8" stdDeviation="10" flood-color="#0D0D0D" flood-opacity="0.10"/>
    </filter>
    <marker id="arrow" markerWidth="12" markerHeight="12" refX="10" refY="6" orient="auto">
      <path d="M2,2 L10,6 L2,10 Z" fill="#343943"/>
    </marker>
    <linearGradient id="hero" x1="0" y1="0" x2="1" y2="1">
      <stop offset="0%" stop-color="#FF3045"/>
      <stop offset="58%" stop-color="#B01626"/>
      <stop offset="100%" stop-color="#7B1D18"/>
    </linearGradient>
    <linearGradient id="brandRed" x1="0" y1="0" x2="1" y2="1">
      <stop offset="0%" stop-color="#FF3045"/>
      <stop offset="100%" stop-color="#B01626"/>
    </linearGradient>
    <linearGradient id="inkGrad" x1="0" y1="0" x2="1" y2="1">
      <stop offset="0%" stop-color="#0D0D0D"/>
      <stop offset="100%" stop-color="#1F232B"/>
    </linearGradient>
  </defs>
  <rect width="1830" height="1100" fill="#F5F6F8"/>
  <rect x="70" y="50" width="76" height="76" rx="14" fill="url(#brandRed)" stroke="none" stroke-width="1" />
<rect x="87.03" y="80.14" width="41.93" height="28.83" rx="3.93" fill="none" stroke="#ffffff" stroke-width="3.93" />
<path d="M87.03 73.59 L126.34 64.41 L127.66 72.28 L89.66 81.45 Z" fill="#ffffff"/>
<path d="M96.21000000000001 73.59 L102.75999999999999 78.83 M110.62 69.66 L117.17 74.9" stroke="#FF3045" stroke-width="3.93"/>
<rect x="98.83" y="95.86" width="6.55" height="10.48" rx="1" fill="#ffffff" stroke="none" stroke-width="1" />
<rect x="110.62" y="89.31" width="6.55" height="17.03" rx="1" fill="#ffffff" stroke="none" stroke-width="1" />
<rect x="122.41" y="82.75999999999999" width="6.55" height="23.59" rx="1" fill="#ffffff" stroke="none" stroke-width="1" />
<text x="170" y="76" font-family="Montserrat, Inter, Arial, sans-serif" font-size="18" font-weight="900" fill="#FF3045" text-anchor="start" >GUIA DE BRANDING</text>
<text x="170" y="112" font-family="Montserrat, Inter, Arial, sans-serif" font-size="42" font-weight="900" fill="#1F232B" text-anchor="start" >ACADEMY</text>
<text x="170" y="156" font-family="Montserrat, Inter, Arial, sans-serif" font-size="42" font-weight="900" fill="#FF3045" text-anchor="start" >EDITION</text>
<text x="560" y="94" font-family="Montserrat, Inter, Arial, sans-serif" font-size="38" font-weight="900" fill="#1F232B" text-anchor="start" >Aprende. Explora. Analiza. Inspira.</text>
<text x="560" y="132" font-family="Montserrat, Inter, Arial, sans-serif" font-size="18" font-weight="500" fill="#0D0D0D" text-anchor="start" >Flujo alumno: progreso, lecciones, valoraciones y certificado</text>
<rect x="70" y="205" width="385" height="665" rx="8" fill="#ffffff" stroke="#D3D6DC" stroke-width="1" filter="url(#shadow)"/>
<rect x="70" y="205" width="385" height="58" rx="8" fill="url(#inkGrad)" stroke="#0D0D0D" stroke-width="1" />
<circle cx="96" cy="234" r="6" fill="#FF3045" stroke="none" stroke-width="1" />
<circle cx="116" cy="234" r="6" fill="#ffffff" stroke="none" stroke-width="1" />
<circle cx="136" cy="234" r="6" fill="#1F232B" stroke="none" stroke-width="1" />
<text x="162" y="241" font-family="Montserrat, Inter, Arial, sans-serif" font-size="14" font-weight="800" fill="#ffffff" text-anchor="start" >01 Dashboard alumno</text>
<rect x="365" y="223" width="70" height="24" rx="6" fill="#ffffff" stroke="none" stroke-width="1" />
<text x="400" y="240" font-family="Montserrat, Inter, Arial, sans-serif" font-size="10" font-weight="900" fill="#FF3045" text-anchor="middle" >ACADEMY</text>
<rect x="70" y="263" width="385" height="56" rx="0" fill="#ffffff" stroke="none" stroke-width="1" />
<rect x="90" y="275" width="32" height="32" rx="14" fill="url(#brandRed)" stroke="none" stroke-width="1" />
<rect x="97.17" y="287.69" width="17.66" height="12.14" rx="1.66" fill="none" stroke="#ffffff" stroke-width="1.66" />
<path d="M97.17 284.93 L113.72 281.07 L114.28 284.38 L98.28 288.24 Z" fill="#ffffff"/>
<path d="M101.03 284.93 L103.78999999999999 287.14 M107.1 283.28 L109.86 285.48" stroke="#FF3045" stroke-width="1.66"/>
<rect x="102.14" y="294.31" width="2.76" height="4.41" rx="1" fill="#ffffff" stroke="none" stroke-width="1" />
<rect x="107.1" y="291.55" width="2.76" height="7.17" rx="1" fill="#ffffff" stroke="none" stroke-width="1" />
<rect x="112.07" y="288.79" width="2.76" height="9.93" rx="1" fill="#ffffff" stroke="none" stroke-width="1" />
<text x="132" y="292" font-family="Montserrat, Inter, Arial, sans-serif" font-size="14" font-weight="900" fill="#1F232B" text-anchor="start" >ACADEMY</text>
<text x="132" y="308" font-family="Montserrat, Inter, Arial, sans-serif" font-size="14" font-weight="900" fill="#FF3045" text-anchor="start" >EDITION</text>
<rect x="323" y="278" width="76" height="28" rx="6" fill="#FFE5E8" stroke="none" stroke-width="1" />
<text x="361" y="298" font-family="Montserrat, Inter, Arial, sans-serif" font-size="11" font-weight="900" fill="#FF3045" text-anchor="middle" >Panel</text>
<rect x="409" y="278" width="26" height="28" rx="6" fill="url(#brandRed)" stroke="none" stroke-width="1" />
<text x="422" y="298" font-family="Montserrat, Inter, Arial, sans-serif" font-size="12" font-weight="900" fill="#ffffff" text-anchor="middle" >L</text>
<text x="104" y="368" font-family="Montserrat, Inter, Arial, sans-serif" font-size="28" font-weight="900" fill="#1F232B" text-anchor="start" >Cursos asignados</text>
<rect x="104" y="401" width="317" height="150" rx="8" fill="#ffffff" stroke="#D3D6DC" stroke-width="1" />
<rect x="104" y="401" width="317" height="50" rx="8" fill="url(#brandRed)" stroke="none" stroke-width="1" />
<text x="120" y="433" font-family="Montserrat, Inter, Arial, sans-serif" font-size="15" font-weight="900" fill="#ffffff" text-anchor="start" >Desarrollo Web con React</text>
<rect x="120" y="469" width="64" height="54" rx="8" fill="#FFE5E8" stroke="none" stroke-width="1" />
<rect x="125" y="475" width="54" height="42" rx="8" fill="#ffffff" stroke="none" stroke-width="1" />
<circle cx="145.28" cy="490.96" r="11.760000000000002" fill="#FF3045" stroke="none" stroke-width="1" />
<rect x="131.84" y="484.24" width="24.36" height="13.44" rx="8" fill="#ffffff" stroke="none" stroke-width="1" />
<rect x="131.84" y="492.64" width="24.36" height="13.44" rx="8" fill="#F5F6F8" stroke="none" stroke-width="1" />
<rect x="153.68" y="495.16" width="13.44" height="10.08" rx="6" fill="#ffffff" stroke="none" stroke-width="1" />
<circle cx="163.76" cy="506.92" r="6.72" fill="url(#brandRed)" stroke="none" stroke-width="1" />
<text x="163.76" y="509.44" font-family="Montserrat, Inter, Arial, sans-serif" font-size="10.08" font-weight="900" fill="#ffffff" text-anchor="middle" >↓</text>
<text x="200" y="483" font-family="Montserrat, Inter, Arial, sans-serif" font-size="12" font-weight="700" fill="#6B7280" text-anchor="start" >Laura Ruiz</text>
<text x="200" y="505" font-family="Montserrat, Inter, Arial, sans-serif" font-size="12" font-weight="700" fill="#343943" text-anchor="start" >4.7 estrellas</text>
<rect x="200" y="523" width="150" height="9" rx="5" fill="#E5E7EB" stroke="none" stroke-width="1" />
<rect x="200" y="523" width="108" height="9" rx="5" fill="#FF3045" stroke="none" stroke-width="1" />
<text x="360" y="532" font-family="Montserrat, Inter, Arial, sans-serif" font-size="12" font-weight="900" fill="#1F232B" text-anchor="start" >72%</text>
<rect x="104" y="579" width="317" height="150" rx="8" fill="#ffffff" stroke="#D3D6DC" stroke-width="1" />
<rect x="104" y="579" width="317" height="50" rx="8" fill="url(#brandRed)" stroke="none" stroke-width="1" />
<text x="120" y="611" font-family="Montserrat, Inter, Arial, sans-serif" font-size="15" font-weight="900" fill="#ffffff" text-anchor="start" >Diseno de APIs con Node.js</text>
<rect x="120" y="647" width="64" height="54" rx="8" fill="#FFE9EC" stroke="none" stroke-width="1" />
<rect x="125" y="653" width="54" height="42" rx="8" fill="#ffffff" stroke="none" stroke-width="1" />
<circle cx="144.44" cy="674" r="11.760000000000002" fill="#FF3045" stroke="none" stroke-width="1" />
<rect x="132.68" y="663.92" width="20.16" height="15.12" rx="6" fill="#ffffff" stroke="none" stroke-width="1" />
<rect x="149.48" y="660.56" width="13.44" height="21.84" rx="6" fill="#1F232B" stroke="none" stroke-width="1" />
<text x="156.2" y="676.94" font-family="Montserrat, Inter, Arial, sans-serif" font-size="7.56" font-weight="900" fill="#ffffff" text-anchor="middle" >py</text>
<rect x="162.08" y="668.96" width="11.760000000000002" height="16.8" rx="6" fill="#FFC43D" stroke="none" stroke-width="1" />
<text x="200" y="661" font-family="Montserrat, Inter, Arial, sans-serif" font-size="12" font-weight="700" fill="#6B7280" text-anchor="start" >Laura Ruiz</text>
<text x="200" y="683" font-family="Montserrat, Inter, Arial, sans-serif" font-size="12" font-weight="700" fill="#343943" text-anchor="start" >4.7 estrellas</text>
<rect x="200" y="701" width="150" height="9" rx="5" fill="#E5E7EB" stroke="none" stroke-width="1" />
<rect x="200" y="701" width="52.5" height="9" rx="5" fill="#FF3045" stroke="none" stroke-width="1" />
<text x="360" y="710" font-family="Montserrat, Inter, Arial, sans-serif" font-size="12" font-weight="900" fill="#1F232B" text-anchor="start" >35%</text>
<rect x="104" y="777" width="128" height="36" rx="8" fill="url(#brandRed)" stroke="none" stroke-width="1" />
<text x="168" y="800" font-family="Montserrat, Inter, Arial, sans-serif" font-size="13" font-weight="900" fill="#ffffff" text-anchor="middle" >Continuar</text>
<rect x="505" y="205" width="385" height="665" rx="8" fill="#ffffff" stroke="#D3D6DC" stroke-width="1" filter="url(#shadow)"/>
<rect x="505" y="205" width="385" height="58" rx="8" fill="url(#inkGrad)" stroke="#0D0D0D" stroke-width="1" />
<circle cx="531" cy="234" r="6" fill="#FF3045" stroke="none" stroke-width="1" />
<circle cx="551" cy="234" r="6" fill="#ffffff" stroke="none" stroke-width="1" />
<circle cx="571" cy="234" r="6" fill="#1F232B" stroke="none" stroke-width="1" />
<text x="597" y="241" font-family="Montserrat, Inter, Arial, sans-serif" font-size="14" font-weight="800" fill="#ffffff" text-anchor="start" >02 Visor leccion</text>
<rect x="800" y="223" width="70" height="24" rx="6" fill="#ffffff" stroke="none" stroke-width="1" />
<text x="835" y="240" font-family="Montserrat, Inter, Arial, sans-serif" font-size="10" font-weight="900" fill="#1F232B" text-anchor="middle" >ACADEMY</text>
<rect x="505" y="263" width="385" height="56" rx="0" fill="#ffffff" stroke="none" stroke-width="1" />
<rect x="525" y="275" width="32" height="32" rx="14" fill="url(#brandRed)" stroke="none" stroke-width="1" />
<rect x="532.17" y="287.69" width="17.66" height="12.14" rx="1.66" fill="none" stroke="#ffffff" stroke-width="1.66" />
<path d="M532.17 284.93 L548.72 281.07 L549.28 284.38 L533.28 288.24 Z" fill="#ffffff"/>
<path d="M536.03 284.93 L538.79 287.14 M542.1 283.28 L544.86 285.48" stroke="#FF3045" stroke-width="1.66"/>
<rect x="537.14" y="294.31" width="2.76" height="4.41" rx="1" fill="#ffffff" stroke="none" stroke-width="1" />
<rect x="542.1" y="291.55" width="2.76" height="7.17" rx="1" fill="#ffffff" stroke="none" stroke-width="1" />
<rect x="547.07" y="288.79" width="2.76" height="9.93" rx="1" fill="#ffffff" stroke="none" stroke-width="1" />
<text x="567" y="292" font-family="Montserrat, Inter, Arial, sans-serif" font-size="14" font-weight="900" fill="#1F232B" text-anchor="start" >ACADEMY</text>
<text x="567" y="308" font-family="Montserrat, Inter, Arial, sans-serif" font-size="14" font-weight="900" fill="#FF3045" text-anchor="start" >EDITION</text>
<rect x="758" y="278" width="76" height="28" rx="6" fill="#FFE5E8" stroke="none" stroke-width="1" />
<text x="796" y="298" font-family="Montserrat, Inter, Arial, sans-serif" font-size="11" font-weight="900" fill="#FF3045" text-anchor="middle" >Panel</text>
<rect x="844" y="278" width="26" height="28" rx="6" fill="url(#brandRed)" stroke="none" stroke-width="1" />
<text x="857" y="298" font-family="Montserrat, Inter, Arial, sans-serif" font-size="12" font-weight="900" fill="#ffffff" text-anchor="middle" >L</text>
<text x="539" y="365" font-family="Montserrat, Inter, Arial, sans-serif" font-size="24" font-weight="900" fill="#1F232B" text-anchor="start" >Leccion 08 - Router</text>
<rect x="539" y="391" width="317" height="230" rx="8" fill="url(#inkGrad)" stroke="none" stroke-width="1" />
<rect x="559" y="413" width="277" height="34" rx="8" fill="#ffffff14" stroke="none" stroke-width="1" />
<circle cx="697.5" cy="506" r="34" fill="#ffffff22" stroke="#ffffff55" stroke-width="1" />
<text x="697.5" y="516" font-family="Montserrat, Inter, Arial, sans-serif" font-size="14" font-weight="900" fill="#ffffff" text-anchor="middle" >PLAY</text>
<rect x="563" y="591" width="269" height="6" rx="3" fill="#ffffff22" stroke="none" stroke-width="1" />
<rect x="563" y="591" width="172.16" height="6" rx="3" fill="#FF3045" stroke="none" stroke-width="1" />
<rect x="539" y="649" width="317" height="48" rx="8" fill="#ECEFF3" stroke="none" stroke-width="1" />
<text x="563" y="679" font-family="Montserrat, Inter, Arial, sans-serif" font-size="14" font-weight="800" fill="#1F232B" text-anchor="start" >PDF adjunto: guia-router.pdf</text>
<rect x="539" y="733" width="194" height="36" rx="8" fill="url(#brandRed)" stroke="none" stroke-width="1" />
<text x="636" y="756" font-family="Montserrat, Inter, Arial, sans-serif" font-size="13" font-weight="900" fill="#ffffff" text-anchor="middle" >Marcar completada</text>
<rect x="755" y="733" width="104" height="42" rx="8" fill="#ffffff" stroke="#D3D6DC" stroke-width="1" />
<text x="807" y="760" font-family="Montserrat, Inter, Arial, sans-serif" font-size="13" font-weight="800" fill="#1F232B" text-anchor="middle" >Siguiente</text>
<rect x="940" y="205" width="385" height="665" rx="8" fill="#ffffff" stroke="#D3D6DC" stroke-width="1" filter="url(#shadow)"/>
<rect x="940" y="205" width="385" height="58" rx="8" fill="url(#inkGrad)" stroke="#0D0D0D" stroke-width="1" />
<circle cx="966" cy="234" r="6" fill="#FF3045" stroke="none" stroke-width="1" />
<circle cx="986" cy="234" r="6" fill="#ffffff" stroke="none" stroke-width="1" />
<circle cx="1006" cy="234" r="6" fill="#1F232B" stroke="none" stroke-width="1" />
<text x="1032" y="241" font-family="Montserrat, Inter, Arial, sans-serif" font-size="14" font-weight="800" fill="#ffffff" text-anchor="start" >03 Review</text>
<rect x="1235" y="223" width="70" height="24" rx="6" fill="#ffffff" stroke="none" stroke-width="1" />
<text x="1270" y="240" font-family="Montserrat, Inter, Arial, sans-serif" font-size="10" font-weight="900" fill="#B01626" text-anchor="middle" >ACADEMY</text>
<rect x="940" y="263" width="385" height="56" rx="0" fill="#ffffff" stroke="none" stroke-width="1" />
<rect x="960" y="275" width="32" height="32" rx="14" fill="url(#brandRed)" stroke="none" stroke-width="1" />
<rect x="967.17" y="287.69" width="17.66" height="12.14" rx="1.66" fill="none" stroke="#ffffff" stroke-width="1.66" />
<path d="M967.17 284.93 L983.72 281.07 L984.28 284.38 L968.28 288.24 Z" fill="#ffffff"/>
<path d="M971.03 284.93 L973.79 287.14 M977.1 283.28 L979.86 285.48" stroke="#FF3045" stroke-width="1.66"/>
<rect x="972.14" y="294.31" width="2.76" height="4.41" rx="1" fill="#ffffff" stroke="none" stroke-width="1" />
<rect x="977.1" y="291.55" width="2.76" height="7.17" rx="1" fill="#ffffff" stroke="none" stroke-width="1" />
<rect x="982.07" y="288.79" width="2.76" height="9.93" rx="1" fill="#ffffff" stroke="none" stroke-width="1" />
<text x="1002" y="292" font-family="Montserrat, Inter, Arial, sans-serif" font-size="14" font-weight="900" fill="#1F232B" text-anchor="start" >ACADEMY</text>
<text x="1002" y="308" font-family="Montserrat, Inter, Arial, sans-serif" font-size="14" font-weight="900" fill="#FF3045" text-anchor="start" >EDITION</text>
<rect x="1193" y="278" width="76" height="28" rx="6" fill="#FFE5E8" stroke="none" stroke-width="1" />
<text x="1231" y="298" font-family="Montserrat, Inter, Arial, sans-serif" font-size="11" font-weight="900" fill="#FF3045" text-anchor="middle" >Panel</text>
<rect x="1279" y="278" width="26" height="28" rx="6" fill="url(#brandRed)" stroke="none" stroke-width="1" />
<text x="1292" y="298" font-family="Montserrat, Inter, Arial, sans-serif" font-size="12" font-weight="900" fill="#ffffff" text-anchor="middle" >L</text>
<text x="974" y="365" font-family="Montserrat, Inter, Arial, sans-serif" font-size="25" font-weight="900" fill="#1F232B" text-anchor="start" >Curso completado</text>
<rect x="974" y="391" width="317" height="90" rx="8" fill="#FFE5E8" stroke="none" stroke-width="1" />
<text x="998" y="429" font-family="Montserrat, Inter, Arial, sans-serif" font-size="25" font-weight="900" fill="#FF3045" text-anchor="start" >100% de progreso</text>
<text x="998" y="457" font-family="Montserrat, Inter, Arial, sans-serif" font-size="14" font-weight="700" fill="#343943" text-anchor="start" >Ya puedes valorar el curso.</text>
<text x="974" y="533" font-family="Montserrat, Inter, Arial, sans-serif" font-size="19" font-weight="900" fill="#1F232B" text-anchor="start" >Tu review</text>
<text x="974" y="575" font-family="Montserrat, Inter, Arial, sans-serif" font-size="18" font-weight="900" fill="#B01626" text-anchor="start" >5 estrellas</text>
<rect x="974" y="603" width="317" height="120" rx="8" fill="#ffffff" stroke="#D3D6DC" stroke-width="1" />
<text x="998" y="641" font-family="Montserrat, Inter, Arial, sans-serif" font-size="15" font-weight="500" fill="#343943" text-anchor="start" >Contenido claro, practico y muy bien</text>
<text x="998" y="663" font-family="Montserrat, Inter, Arial, sans-serif" font-size="15" font-weight="500" fill="#343943" text-anchor="start" >organizado para aprender paso a paso.</text>
<rect x="974" y="765" width="126" height="36" rx="8" fill="url(#brandRed)" stroke="none" stroke-width="1" />
<text x="1037" y="788" font-family="Montserrat, Inter, Arial, sans-serif" font-size="13" font-weight="900" fill="#ffffff" text-anchor="middle" >Publicar</text>
<rect x="1375" y="205" width="385" height="665" rx="8" fill="#ffffff" stroke="#D3D6DC" stroke-width="1" filter="url(#shadow)"/>
<rect x="1375" y="205" width="385" height="58" rx="8" fill="url(#inkGrad)" stroke="#0D0D0D" stroke-width="1" />
<circle cx="1401" cy="234" r="6" fill="#FF3045" stroke="none" stroke-width="1" />
<circle cx="1421" cy="234" r="6" fill="#ffffff" stroke="none" stroke-width="1" />
<circle cx="1441" cy="234" r="6" fill="#1F232B" stroke="none" stroke-width="1" />
<text x="1467" y="241" font-family="Montserrat, Inter, Arial, sans-serif" font-size="14" font-weight="800" fill="#ffffff" text-anchor="start" >04 Certificado extra</text>
<rect x="1670" y="223" width="70" height="24" rx="6" fill="#ffffff" stroke="none" stroke-width="1" />
<text x="1705" y="240" font-family="Montserrat, Inter, Arial, sans-serif" font-size="10" font-weight="900" fill="#7B1D18" text-anchor="middle" >ACADEMY</text>
<rect x="1375" y="263" width="385" height="56" rx="0" fill="#ffffff" stroke="none" stroke-width="1" />
<rect x="1395" y="275" width="32" height="32" rx="14" fill="url(#brandRed)" stroke="none" stroke-width="1" />
<rect x="1402.17" y="287.69" width="17.66" height="12.14" rx="1.66" fill="none" stroke="#ffffff" stroke-width="1.66" />
<path d="M1402.17 284.93 L1418.72 281.07 L1419.28 284.38 L1403.28 288.24 Z" fill="#ffffff"/>
<path d="M1406.03 284.93 L1408.79 287.14 M1412.1 283.28 L1414.86 285.48" stroke="#FF3045" stroke-width="1.66"/>
<rect x="1407.14" y="294.31" width="2.76" height="4.41" rx="1" fill="#ffffff" stroke="none" stroke-width="1" />
<rect x="1412.1" y="291.55" width="2.76" height="7.17" rx="1" fill="#ffffff" stroke="none" stroke-width="1" />
<rect x="1417.07" y="288.79" width="2.76" height="9.93" rx="1" fill="#ffffff" stroke="none" stroke-width="1" />
<text x="1437" y="292" font-family="Montserrat, Inter, Arial, sans-serif" font-size="14" font-weight="900" fill="#1F232B" text-anchor="start" >ACADEMY</text>
<text x="1437" y="308" font-family="Montserrat, Inter, Arial, sans-serif" font-size="14" font-weight="900" fill="#FF3045" text-anchor="start" >EDITION</text>
<rect x="1628" y="278" width="76" height="28" rx="6" fill="#FFE5E8" stroke="none" stroke-width="1" />
<text x="1666" y="298" font-family="Montserrat, Inter, Arial, sans-serif" font-size="11" font-weight="900" fill="#FF3045" text-anchor="middle" >Panel</text>
<rect x="1714" y="278" width="26" height="28" rx="6" fill="url(#brandRed)" stroke="none" stroke-width="1" />
<text x="1727" y="298" font-family="Montserrat, Inter, Arial, sans-serif" font-size="12" font-weight="900" fill="#ffffff" text-anchor="middle" >L</text>
<rect x="1447" y="375" width="241" height="360" rx="8" fill="#ffffff" stroke="#D3D6DC" stroke-width="2" />
<rect x="1549.5" y="393" width="36" height="36" rx="14" fill="url(#brandRed)" stroke="none" stroke-width="1" />
<rect x="1557.57" y="407.28" width="19.86" height="13.66" rx="1.86" fill="none" stroke="#ffffff" stroke-width="1.86" />
<path d="M1557.57 404.17 L1576.19 399.83 L1576.81 403.55 L1558.81 407.9 Z" fill="#ffffff"/>
<path d="M1561.91 404.17 L1565.02 406.66 M1568.74 402.31 L1571.84 404.79" stroke="#FF3045" stroke-width="1.86"/>
<rect x="1563.16" y="414.72" width="3.1" height="4.97" rx="1" fill="#ffffff" stroke="none" stroke-width="1" />
<rect x="1568.74" y="411.62" width="3.1" height="8.07" rx="1" fill="#ffffff" stroke="none" stroke-width="1" />
<rect x="1574.33" y="408.52" width="3.1" height="11.17" rx="1" fill="#ffffff" stroke="none" stroke-width="1" />
<text x="1567.5" y="461" font-family="Montserrat, Inter, Arial, sans-serif" font-size="24" font-weight="900" fill="#1F232B" text-anchor="middle" >CERTIFICADO</text>
<text x="1567.5" y="499" font-family="Montserrat, Inter, Arial, sans-serif" font-size="19" font-weight="900" fill="#FF3045" text-anchor="middle" >Desarrollo Web</text>
<text x="1567.5" y="523" font-family="Montserrat, Inter, Arial, sans-serif" font-size="19" font-weight="900" fill="#FF3045" text-anchor="middle" >con React</text>
<text x="1567.5" y="563" font-family="Montserrat, Inter, Arial, sans-serif" font-size="17" font-weight="700" fill="#343943" text-anchor="middle" >Maria Lopez</text>
<rect x="1525" y="601" width="85" height="2" rx="1" fill="#D3D6DC" stroke="none" stroke-width="1" />
<text x="1567.5" y="645" font-family="Montserrat, Inter, Arial, sans-serif" font-size="15" font-weight="800" fill="#1F232B" text-anchor="middle" >Academy Edition</text>
<rect x="1481.5" y="783" width="172" height="36" rx="8" fill="#7B1D18" stroke="none" stroke-width="1" />
<text x="1567.5" y="806" font-family="Montserrat, Inter, Arial, sans-serif" font-size="13" font-weight="900" fill="#ffffff" text-anchor="middle" >Descargar PDF</text>
<line x1="455" y1="535" x2="505" y2="535" stroke="#343943" stroke-width="2"  marker-end="url(#arrow)"/>
<line x1="890" y1="535" x2="940" y2="535" stroke="#343943" stroke-width="2"  marker-end="url(#arrow)"/>
<path d="M1325 535 C1350 535 1350 535 1375 535" fill="none" stroke="#7B1D18" stroke-width="2" stroke-dasharray="8 8" marker-end="url(#arrow)"/>
<rect x="70" y="925" width="1690" height="118" rx="24" fill="#ffffff" stroke="#D3D6DC" stroke-width="1" />
<text x="110" y="970" font-family="Montserrat, Inter, Arial, sans-serif" font-size="20" font-weight="900" fill="#1F232B" text-anchor="start" >Estados avanzados</text>
<text x="110" y="1006" font-family="Montserrat, Inter, Arial, sans-serif" font-size="16" font-weight="500" fill="#343943" text-anchor="start" >La barra de progreso cambia tras cada leccion completada. Al llegar al 100%, se desbloquea review y certificado PDF.</text>
<text x="110" y="1030" font-family="Montserrat, Inter, Arial, sans-serif" font-size="16" font-weight="500" fill="#343943" text-anchor="start" >La review solo aparece para alumnos inscritos y debe bloquear duplicados por alumno + curso.</text>
</svg>